<svg width="24" height="25" viewBox="0 0 24 25" fill="none" xmlns="http://www.w3.org/2000/svg">
<path d="M0 3.23633C0 1.57947 1.34315 0.236328 3 0.236328H21C22.6569 0.236328 24 1.57947 24 3.23633V21.2363C24 22.8932 22.6569 24.2363 21 24.2363H3C1.34315 24.2363 0 22.8932 0 21.2363V3.23633Z" fill="#F8F9FA"/>
<path d="M9 12.2363C10.1046 12.2363 11 11.3409 11 10.2363C11 9.13176 10.1046 8.23633 9 8.23633C7.89543 8.23633 7 9.13176 7 10.2363C7 11.3409 7.89543 12.2363 9 12.2363Z" fill="#212121"/>
<path d="M20 12.2363H12V9.23633H18C18.5304 9.23633 19.0391 9.44704 19.4142 9.82211C19.7893 10.1972 20 10.7059 20 11.2363V12.2363Z" fill="#212121"/>
<path d="M20 13.2363H6V6.23633H4V18.2363H6V16.2363H18V18.2363H20V13.2363Z" fill="#212121"/>
<path d="M3 1.23633H21V-0.763672H3V1.23633ZM23 3.23633V21.2363H25V3.23633H23ZM21 23.2363H3V25.2363H21V23.2363ZM1 21.2363V3.23633H-1V21.2363H1ZM3 23.2363C1.89543 23.2363 1 22.3409 1 21.2363H-1C-1 23.4455 0.790861 25.2363 3 25.2363V23.2363ZM23 21.2363C23 22.3409 22.1046 23.2363 21 23.2363V25.2363C23.2091 25.2363 25 23.4455 25 21.2363H23ZM21 1.23633C22.1046 1.23633 23 2.13176 23 3.23633H25C25 1.02719 23.2091 -0.763672 21 -0.763672V1.23633ZM3 -0.763672C0.790861 -0.763672 -1 1.02719 -1 3.23633H1C1 2.13176 1.89543 1.23633 3 1.23633V-0.763672Z" fill="#E6EBEF"/>
</svg>
