<svg width="27" height="21" viewBox="0 0 27 21" fill="none" xmlns="http://www.w3.org/2000/svg">
    <path d="M26.7251 19.6828C22.7132 15.6203 18.5876 0.685345 18.5129 0.538109C18.4006 0.17173 18.0253 -0.0839955 17.5751 0.0255895L7.78892 2.62469C7.52694 2.69775 7.30133 2.91801 7.26388 3.17373C7.22646 3.28334 4.22592 15.8029 0.21398 19.7558C-0.236186 20.1952 0.0642797 21 0.739014 21H26.2385C26.988 21.001 27.2501 20.1222 26.7251 19.6828ZM2.35156 19.5366C5.72623 14.9982 8.12693 6.02969 8.65197 3.90666L16.7519 1.78355C15.6644 5.40753 12.3647 15.9866 9.06476 19.5368L2.35156 19.5366ZM22.2256 19.5366C20.7254 17.7434 19.0754 12.5452 18.5504 10.6413C18.2884 9.87305 17.2758 9.94611 17.0876 10.6413C16.5626 12.5817 14.9126 17.7789 13.4124 19.5366H10.9754C13.9001 15.5471 16.6 7.45662 17.8381 3.39414C19.0753 7.45769 21.7753 15.5471 24.7008 19.5366H22.2256Z" fill="#212121"/>
</svg>