<svg width="24" height="25" viewBox="0 0 24 25" fill="none" xmlns="http://www.w3.org/2000/svg">
<path d="M0 3.23633C0 1.57947 1.34315 0.236328 3 0.236328H21C22.6569 0.236328 24 1.57947 24 3.23633V21.2363C24 22.8932 22.6569 24.2363 21 24.2363H3C1.34315 24.2363 0 22.8932 0 21.2363V3.23633Z" fill="#F8F9FA"/>
<g clip-path="url(#clip0_324_552)">
<path d="M10 4.23633L9.6 9.23633H8.4L8 4.23633H7L6.6 9.23633H5.4L5 4.23633H4V10.2363C4 10.7668 4.21071 11.2755 4.58579 11.6505C4.96086 12.0256 5.46957 12.2363 6 12.2363V18.7363C6 19.1342 6.15804 19.5157 6.43934 19.797C6.72064 20.0783 7.10218 20.2363 7.5 20.2363C7.89782 20.2363 8.27936 20.0783 8.56066 19.797C8.84196 19.5157 9 19.1342 9 18.7363V12.2363C9.53043 12.2363 10.0391 12.0256 10.4142 11.6505C10.7893 11.2755 11 10.7668 11 10.2363V4.23633H10Z" fill="black"/>
<path d="M19 4.23633C17.6739 4.23633 16.4021 4.76311 15.4645 5.70079C14.5268 6.63848 14 7.91025 14 9.23633V15.2363H16V18.7363C16 19.1342 16.158 19.5157 16.4393 19.797C16.7206 20.0783 17.1022 20.2363 17.5 20.2363C17.8978 20.2363 18.2794 20.0783 18.5607 19.797C18.842 19.5157 19 19.1342 19 18.7363V4.23633Z" fill="black"/>
</g>
<path d="M3 1.23633H21V-0.763672H3V1.23633ZM23 3.23633V21.2363H25V3.23633H23ZM21 23.2363H3V25.2363H21V23.2363ZM1 21.2363V3.23633H-1V21.2363H1ZM3 23.2363C1.89543 23.2363 1 22.3409 1 21.2363H-1C-1 23.4455 0.790861 25.2363 3 25.2363V23.2363ZM23 21.2363C23 22.3409 22.1046 23.2363 21 23.2363V25.2363C23.2091 25.2363 25 23.4455 25 21.2363H23ZM21 1.23633C22.1046 1.23633 23 2.13176 23 3.23633H25C25 1.02719 23.2091 -0.763672 21 -0.763672V1.23633ZM3 -0.763672C0.790861 -0.763672 -1 1.02719 -1 3.23633H1C1 2.13176 1.89543 1.23633 3 1.23633V-0.763672Z" fill="#E6EBEF"/>
<defs>
<clipPath id="clip0_324_552">
<rect width="16" height="16" fill="white" transform="translate(4 4.23633)"/>
</clipPath>
</defs>
</svg>
