<svg width="24" height="25" viewBox="0 0 24 25" fill="none" xmlns="http://www.w3.org/2000/svg">
<path d="M0 3.23633C0 1.57947 1.34315 0.236328 3 0.236328H21C22.6569 0.236328 24 1.57947 24 3.23633V21.2363C24 22.8932 22.6569 24.2363 21 24.2363H3C1.34315 24.2363 0 22.8932 0 21.2363V3.23633Z" fill="#F8F9FA"/>
<path d="M16.8598 15.6815L15.4456 17.0957L18.0003 19.6505L19.4145 18.2363L16.8598 15.6815Z" fill="#212121"/>
<path d="M18.7076 5.52935C18.5201 5.34188 18.2658 5.23656 18.0006 5.23656C17.7355 5.23656 17.4812 5.34188 17.2936 5.52935L12.0006 10.8223L11.0616 9.88235L11.8546 9.09035C11.9012 9.0439 11.9381 8.98873 11.9633 8.92798C11.9886 8.86724 12.0015 8.80212 12.0015 8.73635C12.0015 8.67058 11.9886 8.60546 11.9633 8.54472C11.9381 8.48397 11.9012 8.4288 11.8546 8.38235L7.85463 4.38235C7.76075 4.28846 7.63341 4.23572 7.50063 4.23572C7.36786 4.23572 7.24052 4.28846 7.14663 4.38235C7.05274 4.47624 7 4.60357 7 4.73635C7 4.86913 7.05274 4.99646 7.14663 5.09035L10.2936 8.23635L9.50063 9.02935L6.35463 5.88235C6.26075 5.78846 6.13341 5.73572 6.00063 5.73572C5.86786 5.73572 5.74052 5.78846 5.64663 5.88235C5.55274 5.97624 5.5 6.10357 5.5 6.23635C5.5 6.36913 5.55274 6.49646 5.64663 6.59035L8.79363 9.73635L8.00063 10.5293L4.85463 7.38235C4.76074 7.28846 4.63341 7.23572 4.50063 7.23572C4.36786 7.23572 4.24052 7.28846 4.14663 7.38235C4.05274 7.47624 4 7.60357 4 7.73635C4 7.86913 4.05274 7.99646 4.14663 8.09035L8.14663 12.0903C8.19308 12.1369 8.24825 12.1739 8.309 12.1991C8.36974 12.2243 8.43486 12.2372 8.50063 12.2372C8.5664 12.2372 8.63152 12.2243 8.69227 12.1991C8.75301 12.1739 8.80819 12.1369 8.85463 12.0903L9.64663 11.2973L10.5866 12.2363L4.58663 18.2363L6.00063 19.6503L10.0006 15.6503L11.3246 16.9743C11.5122 17.1618 11.7665 17.2671 12.0316 17.2671C12.2968 17.2671 12.5511 17.1618 12.7386 16.9743L18.7076 11.0063C19.0675 10.6468 19.3529 10.2199 19.5477 9.75006C19.7425 9.28017 19.8427 8.7765 19.8427 8.26785C19.8427 7.7592 19.7425 7.25553 19.5477 6.78564C19.3529 6.31575 19.0675 5.88885 18.7076 5.52935Z" fill="#212121"/>
<path d="M3 1.23633H21V-0.763672H3V1.23633ZM23 3.23633V21.2363H25V3.23633H23ZM21 23.2363H3V25.2363H21V23.2363ZM1 21.2363V3.23633H-1V21.2363H1ZM3 23.2363C1.89543 23.2363 1 22.3409 1 21.2363H-1C-1 23.4455 0.790861 25.2363 3 25.2363V23.2363ZM23 21.2363C23 22.3409 22.1046 23.2363 21 23.2363V25.2363C23.2091 25.2363 25 23.4455 25 21.2363H23ZM21 1.23633C22.1046 1.23633 23 2.13176 23 3.23633H25C25 1.02719 23.2091 -0.763672 21 -0.763672V1.23633ZM3 -0.763672C0.790861 -0.763672 -1 1.02719 -1 3.23633H1C1 2.13176 1.89543 1.23633 3 1.23633V-0.763672Z" fill="#E6EBEF"/>
</svg>
