<svg width="24" height="25" viewBox="0 0 24 25" fill="none" xmlns="http://www.w3.org/2000/svg">
<path d="M0 3.23633C0 1.57947 1.34315 0.236328 3 0.236328H21C22.6569 0.236328 24 1.57947 24 3.23633V21.2363C24 22.8932 22.6569 24.2363 21 24.2363H3C1.34315 24.2363 0 22.8932 0 21.2363V3.23633Z" fill="#F8F9FA"/>
<path d="M14 9.23633C14 7.81133 16 5.23633 16 5.23633C16 5.23633 18 7.81133 18 9.23633C18 10.6613 17 11.2363 16 11.2363C15 11.2363 14 10.6613 14 9.23633Z" fill="#212121"/>
<path d="M18.9134 16.0132L12.5422 16.5672C11.9524 16.6185 11.3609 16.4886 10.8469 16.1948L9 15.2363H13C13.5487 15.2363 14.1818 14.7466 14.1818 14.1978C14.1818 13.7197 13.8413 13.3094 13.3713 13.2213L9.69234 12.5315C8.80844 12.3657 7.91108 12.2363 7.01178 12.2363H4V17.5474L9.98153 20.041C10.6436 20.2892 11.3762 20.2857 12.0501 20.1156L20 17.0096V17.0094C20 16.4229 19.4976 15.9624 18.9134 16.0132Z" fill="#212121"/>
<path d="M3 1.23633H21V-0.763672H3V1.23633ZM23 3.23633V21.2363H25V3.23633H23ZM21 23.2363H3V25.2363H21V23.2363ZM1 21.2363V3.23633H-1V21.2363H1ZM3 23.2363C1.89543 23.2363 1 22.3409 1 21.2363H-1C-1 23.4455 0.790861 25.2363 3 25.2363V23.2363ZM23 21.2363C23 22.3409 22.1046 23.2363 21 23.2363V25.2363C23.2091 25.2363 25 23.4455 25 21.2363H23ZM21 1.23633C22.1046 1.23633 23 2.13176 23 3.23633H25C25 1.02719 23.2091 -0.763672 21 -0.763672V1.23633ZM3 -0.763672C0.790861 -0.763672 -1 1.02719 -1 3.23633H1C1 2.13176 1.89543 1.23633 3 1.23633V-0.763672Z" fill="#E6EBEF"/>
</svg>
