<svg width="81" height="82" viewBox="0 0 81 82" fill="none" xmlns="http://www.w3.org/2000/svg">
<path d="M24.5653 44.2709C22.6463 46.1889 21.5534 48.7069 21.4864 51.3589C21.4184 54.0309 22.3974 56.5189 24.2444 58.3649C26.0864 60.2069 28.5213 61.1209 30.9963 61.1209C33.6223 61.1209 36.2923 60.0899 38.3383 58.0429C42.3123 54.0689 42.4564 47.7469 38.6594 43.9499C34.8624 40.1539 28.5383 40.2969 24.5653 44.2709ZM37.2444 45.3649C40.2614 48.3829 40.1174 53.4359 36.9234 56.6299C33.7284 59.8249 28.6753 59.9679 25.6573 56.9509C24.2023 55.4959 23.4303 53.5279 23.4843 51.4099C23.5393 49.2729 24.4244 47.2399 25.9784 45.6849C27.6354 44.0279 29.7923 43.1919 31.9063 43.1919C33.8673 43.1919 35.7924 43.9129 37.2444 45.3649Z" fill="#0F4163"/>
<path d="M58.5403 37.8411C60.4593 35.9231 61.5523 33.405 61.6193 30.753C61.6873 28.082 60.7083 25.5941 58.8613 23.7481C55.0653 19.9511 48.7413 20.0941 44.7673 24.0691C40.7933 28.0431 40.6493 34.366 44.4463 38.163C46.2883 40.0051 48.7233 40.9191 51.1983 40.9191C53.8243 40.9181 56.4943 39.8871 58.5403 37.8411ZM46.1823 25.482C49.3753 22.288 54.4293 22.1431 57.4483 25.1611C58.9033 26.6161 59.6753 28.5831 59.6213 30.7021C59.5663 32.8391 58.6813 34.872 57.1273 36.427C53.9323 39.62 48.8783 39.7651 45.8613 36.7481C42.8443 33.7301 42.9873 28.676 46.1823 25.482Z" fill="#0F4163"/>
<path d="M15.0593 22.812C16.7893 22.812 18.4242 22.203 19.7272 21.092L28.6303 29.995C16.8302 42.458 7.91125 58.713 2.41125 78.253C2.31425 78.598 2.40925 78.969 2.66125 79.225L2.69025 79.255C2.88025 79.449 3.13825 79.554 3.40325 79.554C3.49425 79.554 3.58525 79.542 3.67425 79.516C23.2202 74.014 39.5353 65.155 52.1043 53.469L60.0623 61.427C57.6553 64.258 57.7822 68.521 60.4543 71.194L70.1202 80.86C70.3152 81.055 70.5713 81.153 70.8272 81.153C71.0832 81.153 71.3392 81.055 71.5342 80.86L80.3213 72.073C80.5093 71.885 80.6143 71.631 80.6143 71.366C80.6143 71.101 80.5093 70.846 80.3213 70.659L70.6553 60.993C68.1862 58.524 64.3572 58.224 61.5552 60.092L53.5543 52.09C66.6743 39.367 75.4932 23.439 79.3493 4.93103L79.3962 4.70203C79.4652 4.37203 79.3642 4.03003 79.1252 3.79103L78.8452 3.51003C78.6102 3.27503 78.2743 3.17203 77.9473 3.23403L77.7772 3.26703C59.0082 6.89903 42.8802 15.548 30.0232 28.557L21.0632 19.6C21.8503 18.425 22.2732 17.044 22.2732 15.598C22.2732 13.671 21.5222 11.86 20.1602 10.498L10.4943 0.832031C10.1193 0.457031 9.45525 0.457031 9.08025 0.832031L0.29325 9.62003C-0.09775 10.011 -0.09775 10.643 0.29325 11.034L9.95825 20.7C11.3213 22.062 13.1323 22.812 15.0593 22.812ZM65.5542 60.884C66.8892 60.884 68.2243 61.392 69.2412 62.408L78.2002 71.366L70.8272 78.739L61.8683 69.781C59.9773 67.89 59.8693 64.907 61.4972 62.863L70.9422 72.308C71.1372 72.503 71.3932 72.601 71.6492 72.601C71.9052 72.601 72.1612 72.503 72.3562 72.308C72.7472 71.917 72.7472 71.285 72.3562 70.894L63.0252 61.562C63.8112 61.125 64.6782 60.884 65.5542 60.884ZM4.82225 77.104C10.2553 58.669 18.8242 43.286 30.0512 31.417L50.6823 52.048C38.7103 63.164 23.2673 71.673 4.82225 77.104ZM77.1973 5.42203C73.3303 23.14 64.7673 38.413 52.1273 50.665L31.4472 29.985C43.8132 17.472 59.2572 9.08003 77.1973 5.42203ZM9.78625 2.95403L18.7452 11.912C19.7292 12.897 20.2722 14.206 20.2722 15.598C20.2722 16.502 20.0212 17.361 19.5912 18.129L10.8473 9.38503C10.4563 8.99403 9.82425 8.99403 9.43325 9.38503C9.04225 9.77603 9.04225 10.408 9.43325 10.799L18.2902 19.656C16.2452 21.285 13.2633 21.176 11.3723 19.285L2.41425 10.327L9.78625 2.95403Z" fill="#0F4163"/>
</svg>
