<svg width="89" height="94" viewBox="0 0 89 94" fill="none" xmlns="http://www.w3.org/2000/svg">
<circle cx="43" cy="50.4138" r="43" fill="#FFF3DD"/>
<path d="M63.351 61.8055C57.4023 55.7818 51.2851 33.6369 51.1743 33.4186C51.0078 32.8753 50.4513 32.4961 49.7838 32.6586L35.2732 36.5125C34.8848 36.6208 34.5502 36.9474 34.4947 37.3266C34.4392 37.4891 29.9901 56.0525 24.0414 61.9138C23.3739 62.5653 23.8194 63.7586 24.8199 63.7586H62.6294C63.7409 63.7602 64.1295 62.4571 63.351 61.8055ZM27.2109 61.5888C32.2147 54.8595 35.7744 41.5613 36.5529 38.4133L48.5632 35.2653C46.9507 40.6388 42.058 56.3249 37.165 61.5891L27.2109 61.5888ZM56.6794 61.5888C54.4549 58.9298 52.0084 51.2222 51.2299 48.3992C50.8414 47.26 49.34 47.3684 49.0609 48.3992C48.2824 51.2764 45.836 58.9825 43.6114 61.5888H39.9981C44.3346 55.6733 48.3379 43.6771 50.1737 37.6534C52.0082 43.6786 56.0117 55.6733 60.3494 61.5888H56.6794Z" fill="#FFB119"/>
<path d="M86.911 16.7958C72.3829 15.4683 71.2984 14.4014 69.9608 0C68.6194 14.4013 67.5351 15.468 53 16.7958C67.5352 18.1164 68.6192 19.1989 69.9608 33.5934C71.2988 19.1992 72.3831 18.1165 86.911 16.7958Z" fill="#FFB119"/>
<path d="M63.968 31.3759C63.4555 36.8597 63.0419 37.2681 57.5078 37.7757C63.0419 38.2743 63.4556 38.6948 63.968 44.1821C64.4702 38.6929 64.8855 38.2743 70.4269 37.7757C64.8857 37.27 64.4703 36.8599 63.968 31.3759Z" fill="#FFB119"/>
<path d="M84.0489 29.2354C84.3825 25.6716 84.6519 25.4092 88.2504 25.0738C84.6536 24.7472 84.3825 24.4848 84.0489 20.921C83.7188 24.4848 83.4477 24.7472 79.8491 25.0738C83.4477 25.4109 83.7188 25.6733 84.0489 29.2354Z" fill="#FFB119"/>
</svg>
