<svg width="25" height="18" viewBox="0 0 25 18" fill="none" xmlns="http://www.w3.org/2000/svg">
<path fill-rule="evenodd" clip-rule="evenodd" d="M22.619 16.2H2.38095C2.05278 16.2 1.78571 15.9308 1.78571 15.6V9H23.2143V15.6C23.2143 15.9308 22.9472 16.2 22.619 16.2ZM2.38095 1.8H22.619C22.9472 1.8 23.2143 2.0692 23.2143 2.4V5.4H1.78571V2.4C1.78571 2.0692 2.05278 1.8 2.38095 1.8ZM22.619 0H2.38095C1.06607 0 0 1.0746 0 2.4V15.6C0 16.9254 1.06607 18 2.38095 18H22.619C23.9339 18 25 16.9254 25 15.6V2.4C25 1.0746 23.9339 0 22.619 0Z" fill="#3B82F6"/>
<path fill-rule="evenodd" clip-rule="evenodd" d="M6.64669 12.6H4.46415C3.97109 12.6 3.57129 13.003 3.57129 13.5C3.57129 13.997 3.97109 14.4 4.46415 14.4H6.64669C7.13974 14.4 7.53954 13.997 7.53954 13.5C7.53954 13.003 7.13974 12.6 6.64669 12.6Z" fill="#3B82F6"/>
<path fill-rule="evenodd" clip-rule="evenodd" d="M12.0041 12.6H9.82157C9.32851 12.6 8.92871 13.003 8.92871 13.5C8.92871 13.997 9.32851 14.4 9.82157 14.4H12.0041C12.4972 14.4 12.897 13.997 12.897 13.5C12.897 13.003 12.4972 12.6 12.0041 12.6Z" fill="#3B82F6"/>
</svg>
