<svg width="65" height="80" viewBox="0 0 65 80" fill="none" xmlns="http://www.w3.org/2000/svg">
<path d="M7.439 29.779V45.302C3.303 45.509 0 48.929 0 53.115V63.197C0 64.947 1.424 66.37 3.174 66.37H7.44V72.154C7.44 76.442 10.928 79.93 15.215 79.93H49.299C53.586 79.93 57.074 76.442 57.074 72.154V66.37H60.652C62.551 66.37 64.097 64.825 64.097 62.925V52.722C64.097 48.76 60.982 45.521 57.074 45.303V29.779C57.074 28.003 56.32 25.737 54.7 24.582C55.005 23.257 55.175 21.838 55.175 20.299V17.083C55.175 15.815 54.712 14.665 53.971 13.749H54.533C58.246 13.749 61.267 10.728 61.267 7.015V6.735C61.267 3.022 58.246 0 54.533 0H9.453C5.74 0 2.719 3.021 2.719 6.735V7.015C2.719 10.728 5.74 13.749 9.453 13.749H10.962C9.878 14.893 9.208 16.433 9.208 18.129V20.298C9.208 21.651 9.328 22.92 9.564 24.107C8.106 25.25 7.439 27.836 7.439 29.779ZM3.173 64.37C2.526 64.37 1.999 63.844 1.999 63.197V53.115C1.999 50.032 4.405 47.506 7.438 47.302V64.37H3.173ZM49.298 77.93H15.214C12.029 77.93 9.439 75.339 9.439 72.154V70.821H55.073V72.154C55.073 75.339 52.483 77.93 49.298 77.93ZM62.097 52.722V62.925C62.097 63.722 61.449 64.37 60.652 64.37H57.073V47.303C59.878 47.517 62.097 49.863 62.097 52.722ZM53.174 17.083V20.299C53.174 25.334 51.434 28.992 47.846 31.376V13.749H49.84C51.678 13.749 53.174 15.245 53.174 17.083ZM45.846 11.749H18.407V2.367C18.407 2.237 18.378 2.114 18.333 2H45.92C45.875 2.114 45.846 2.237 45.846 2.367V11.749ZM45.846 13.749V32.474C42.494 34.024 37.978 34.79 32.191 34.79C26.33 34.79 21.772 34.004 18.408 32.414V13.749H45.846ZM59.266 6.735V7.015C59.266 9.625 57.142 11.749 54.532 11.749H49.841H47.847V2.367C47.847 2.237 47.818 2.114 47.773 2H54.533C57.142 2 59.266 4.124 59.266 6.735ZM4.717 7.015V6.735C4.717 4.124 6.841 2 9.451 2H16.481C16.436 2.114 16.407 2.237 16.407 2.367V11.749H15.588H9.451C6.841 11.749 4.717 9.625 4.717 7.015ZM16.407 13.749V31.298C12.901 28.912 11.207 25.276 11.207 20.298V18.129C11.207 15.713 13.172 13.749 15.588 13.749H16.407ZM10.227 26.408C11.35 29.455 13.404 31.845 16.407 33.553V40.183C15.058 40.611 14.071 41.86 14.071 43.349C14.071 45.188 15.567 46.685 17.407 46.685C19.247 46.685 20.744 45.188 20.744 43.349C20.744 41.86 19.757 40.61 18.407 40.183V34.53C21.975 36.03 26.568 36.79 32.19 36.79C37.748 36.79 42.295 36.044 45.845 34.578V40.183C44.496 40.611 43.508 41.86 43.508 43.349C43.508 45.188 45.005 46.685 46.845 46.685C48.685 46.685 50.181 45.188 50.181 43.349C50.181 41.86 49.194 40.61 47.845 40.183V33.63C50.831 31.967 52.888 29.636 54.049 26.672C54.718 27.485 55.072 28.746 55.072 29.779V68.821H9.439V29.779C9.439 28.551 9.763 27.252 10.227 26.408ZM17.407 42.013C18.144 42.013 18.744 42.613 18.744 43.349C18.744 44.085 18.144 44.685 17.407 44.685C16.671 44.685 16.071 44.086 16.071 43.349C16.071 42.612 16.671 42.013 17.407 42.013ZM46.846 42.013C47.582 42.013 48.182 42.613 48.182 43.349C48.182 44.085 47.582 44.685 46.846 44.685C46.109 44.685 45.509 44.086 45.509 43.349C45.509 42.612 46.109 42.013 46.846 42.013Z" fill="#8F2E13"/>
<path d="M24.763 65.165H39.491C44.098 65.165 47.846 61.417 47.846 56.81V50.79C47.846 50.238 47.399 49.79 46.846 49.79H17.407C16.854 49.79 16.407 50.238 16.407 50.79V56.81C16.407 61.417 20.155 65.165 24.763 65.165ZM39.49 63.165H24.763C21.264 63.165 18.417 60.323 18.408 56.826H45.845C45.836 60.323 42.99 63.165 39.49 63.165ZM45.846 51.79V54.826H18.407V51.79H45.846Z" fill="#8F2E13"/>
</svg>
