<svg width="12" height="10" viewBox="0 0 12 10" fill="none" xmlns="http://www.w3.org/2000/svg">
<path fill-rule="evenodd" clip-rule="evenodd" d="M6.293 0.292787C6.48053 0.105316 6.73484 0 7 0C7.26516 0 7.51947 0.105316 7.707 0.292787L11.707 4.29279C11.8945 4.48031 11.9998 4.73462 11.9998 4.99979C11.9998 5.26495 11.8945 5.51926 11.707 5.70679L7.707 9.70679C7.5184 9.88894 7.2658 9.98974 7.0036 9.98746C6.7414 9.98518 6.49059 9.88001 6.30518 9.6946C6.11977 9.5092 6.0146 9.25838 6.01233 8.99619C6.01005 8.73399 6.11084 8.48139 6.293 8.29279L8.586 5.99979H1C0.734784 5.99979 0.48043 5.89443 0.292893 5.70689C0.105357 5.51936 0 5.265 0 4.99979C0 4.73457 0.105357 4.48022 0.292893 4.29268C0.48043 4.10514 0.734784 3.99979 1 3.99979H8.586L6.293 1.70679C6.10553 1.51926 6.00021 1.26495 6.00021 0.999786C6.00021 0.734622 6.10553 0.480314 6.293 0.292787Z" fill="white"/>
</svg>
