<svg width="50" height="81" viewBox="0 0 50 81" fill="none" xmlns="http://www.w3.org/2000/svg">
<path d="M37.367 60.327H11.712C11.16 60.327 10.712 60.774 10.712 61.327C10.712 61.88 11.16 62.327 11.712 62.327H37.366C37.918 62.327 38.366 61.88 38.366 61.327C38.366 60.774 37.919 60.327 37.367 60.327Z" fill="#165A2E"/>
<path d="M37.367 67.276H11.712C11.16 67.276 10.712 67.723 10.712 68.276C10.712 68.829 11.16 69.276 11.712 69.276H37.366C37.918 69.276 38.366 68.829 38.366 68.276C38.366 67.723 37.919 67.276 37.367 67.276Z" fill="#165A2E"/>
<path d="M48.079 80.336C48.631 80.336 49.079 79.889 49.079 79.336V22.812C49.079 10.233 38.845 0 26.266 0H22.813C10.234 0 0 10.233 0 22.812V79.335C0 79.888 0.448 80.335 1 80.335H48.079V80.336ZM2 22.812C2 11.337 11.336 2 22.813 2H26.266C37.743 2 47.079 11.337 47.079 22.812V78.335H2V22.812Z" fill="#165A2E"/>
<path d="M24.539 20.397C28.141 20.397 31.072 17.466 31.072 13.865C31.072 10.262 28.141 7.33203 24.539 7.33203C20.937 7.33203 18.006 10.263 18.006 13.865C18.007 17.467 20.937 20.397 24.539 20.397ZM24.539 9.33203C27.039 9.33203 29.072 11.365 29.072 13.865C29.072 16.364 27.039 18.397 24.539 18.397C22.039 18.397 20.006 16.364 20.006 13.865C20.007 11.365 22.04 9.33203 24.539 9.33203Z" fill="#165A2E"/>
<path d="M15.559 47.741C15.159 48.122 15.142 48.755 15.523 49.155C15.904 49.555 16.538 49.57 16.937 49.19L23.107 43.322V53.41C23.107 53.963 23.555 54.41 24.107 54.41C24.659 54.41 25.107 53.963 25.107 53.41V43.308L31.241 49.265C31.435 49.453 31.687 49.547 31.938 49.547C32.199 49.547 32.459 49.445 32.655 49.243C33.04 48.847 33.03 48.214 32.634 47.829L25.107 40.519V36.143L31.269 42.129C31.463 42.317 31.715 42.411 31.966 42.411C32.227 42.411 32.487 42.309 32.683 42.107C33.068 41.711 33.058 41.078 32.662 40.693L25.106 33.354V28.979L31.296 34.991C31.49 35.179 31.742 35.273 31.993 35.273C32.254 35.273 32.514 35.171 32.71 34.969C33.095 34.573 33.085 33.94 32.689 33.555L24.884 25.975C24.499 25.603 23.886 25.598 23.498 25.968L15.614 33.466C15.214 33.847 15.197 34.48 15.578 34.88C15.959 35.279 16.593 35.295 16.992 34.915L23.105 29.101V33.45L15.585 40.601C15.185 40.982 15.168 41.615 15.549 42.015C15.93 42.414 16.564 42.43 16.963 42.05L23.105 36.209V40.559L15.559 47.741Z" fill="#165A2E"/>
</svg>
