<svg width="20" height="19" viewBox="0 0 20 19" fill="none" xmlns="http://www.w3.org/2000/svg">
<g opacity="0.6">
<path d="M3.45456 10V18.1818H10.8182" stroke="#fff" stroke-width="1.25" stroke-miterlimit="10" stroke-linecap="square"/>
<path d="M17.2491 6.931L10 1L1 8.36364" stroke="#fff" stroke-width="1.25" stroke-miterlimit="10"/>
<path d="M19 12.3048C19 14.2406 15.7273 17.3636 15.7273 17.3636C15.7273 17.3636 12.4546 14.2406 12.4546 12.3048C12.4602 11.8836 12.5498 11.4677 12.7182 11.0816C12.8865 10.6954 13.1302 10.3467 13.4349 10.0559C13.7397 9.76507 14.0994 9.53797 14.493 9.38788C14.8867 9.2378 15.3063 9.16774 15.7273 9.18182C16.1483 9.16774 16.5679 9.2378 16.9615 9.38788C17.3551 9.53797 17.7149 9.76507 18.0196 10.0559C18.3244 10.3467 18.5681 10.6954 18.7364 11.0816C18.9048 11.4677 18.9944 11.8836 19 12.3048V12.3048Z" stroke="#fff" stroke-width="1.25" stroke-miterlimit="10" stroke-linecap="square"/>
<path d="M15.7273 13.2727C16.1791 13.2727 16.5455 12.9064 16.5455 12.4545C16.5455 12.0027 16.1791 11.6364 15.7273 11.6364C15.2754 11.6364 14.9091 12.0027 14.9091 12.4545C14.9091 12.9064 15.2754 13.2727 15.7273 13.2727Z" stroke="#fff" stroke-width="1.25" stroke-miterlimit="10"/>
</g>
</svg>
