<svg width="24" height="25" viewBox="0 0 24 25" fill="none" xmlns="http://www.w3.org/2000/svg">
<path d="M0 3.23633C0 1.57947 1.34315 0.236328 3 0.236328H21C22.6569 0.236328 24 1.57947 24 3.23633V21.2363C24 22.8932 22.6569 24.2363 21 24.2363H3C1.34315 24.2363 0 22.8932 0 21.2363V3.23633Z" fill="#F8F9FA"/>
<path d="M20 9.23633V6.23633C20 5.97111 19.8946 5.71676 19.7071 5.52922C19.5196 5.34168 19.2652 5.23633 19 5.23633H4L7 10.2363L4.305 16.4363C4.17213 16.7408 4.11718 17.0735 4.14511 17.4045C4.17304 17.7355 4.28297 18.0543 4.46498 18.3322C4.64698 18.61 4.89533 18.8382 5.18759 18.9961C5.47985 19.1539 5.80683 19.2365 6.139 19.2363H17.259C17.5735 19.2356 17.8834 19.1607 18.1635 19.0177C18.4437 18.8747 18.6861 18.6677 18.8712 18.4134C19.0563 18.1591 19.1789 17.8648 19.2289 17.5543C19.2789 17.2438 19.2549 16.9259 19.159 16.6263L17.725 12.1363C18.3728 11.975 18.9483 11.6022 19.3604 11.0769C19.7725 10.5516 19.9975 9.90393 20 9.23633ZM18 9.23633C17.998 9.45743 17.9218 9.67145 17.7836 9.84408C17.6454 10.0167 17.4533 10.1379 17.238 10.1883L16.5 7.23633H18V9.23633Z" fill="#212121"/>
<path d="M3 1.23633H21V-0.763672H3V1.23633ZM23 3.23633V21.2363H25V3.23633H23ZM21 23.2363H3V25.2363H21V23.2363ZM1 21.2363V3.23633H-1V21.2363H1ZM3 23.2363C1.89543 23.2363 1 22.3409 1 21.2363H-1C-1 23.4455 0.790861 25.2363 3 25.2363V23.2363ZM23 21.2363C23 22.3409 22.1046 23.2363 21 23.2363V25.2363C23.2091 25.2363 25 23.4455 25 21.2363H23ZM21 1.23633C22.1046 1.23633 23 2.13176 23 3.23633H25C25 1.02719 23.2091 -0.763672 21 -0.763672V1.23633ZM3 -0.763672C0.790861 -0.763672 -1 1.02719 -1 3.23633H1C1 2.13176 1.89543 1.23633 3 1.23633V-0.763672Z" fill="#E6EBEF"/>
</svg>
