<svg width="24" height="25" viewBox="0 0 24 25" fill="none" xmlns="http://www.w3.org/2000/svg">
<path d="M0 3.23633C0 1.57947 1.34315 0.236328 3 0.236328H21C22.6569 0.236328 24 1.57947 24 3.23633V21.2363C24 22.8932 22.6569 24.2363 21 24.2363H3C1.34315 24.2363 0 22.8932 0 21.2363V3.23633Z" fill="#F8F9FA"/>
<path d="M18.2124 14.3376L15.4672 13.1195C15.1957 12.9994 14.8921 12.9722 14.6035 13.0421C14.3149 13.112 14.0575 13.2752 13.871 13.5063L13.0423 14.5433C12.9933 14.5118 12.9495 14.4742 12.9005 14.4418L10.6445 16.7004C12.4818 18.0422 14.6216 18.9103 16.8744 19.2277C16.9358 19.2364 16.9978 19.2408 17.0599 19.2408C17.3587 19.2406 17.649 19.1414 17.8854 18.9587C18.1218 18.776 18.2909 18.5201 18.3664 18.231L18.9685 15.9093C19.0504 15.6002 19.0193 15.272 18.8807 14.9839C18.7421 14.6957 18.505 14.4665 18.2124 14.3376Z" fill="#212121"/>
<path d="M18.7559 5.49301C18.5918 5.32896 18.3693 5.23679 18.1372 5.23679C17.9052 5.23679 17.6826 5.32896 17.5185 5.49301L10.6053 12.4063C10.2778 12.0281 9.97723 11.6275 9.70566 11.2074L10.7418 10.3796C10.9737 10.1933 11.1375 9.93568 11.2078 9.64668C11.2781 9.35767 11.2508 9.05354 11.1303 8.78163L9.9113 6.03645C9.78181 5.74487 9.553 5.50874 9.26565 5.37011C8.9783 5.23148 8.65107 5.19937 8.34225 5.27949L6.02149 5.88243C5.70132 5.96607 5.42294 6.16423 5.23908 6.43937C5.05522 6.71452 4.97865 7.04753 5.02388 7.37535C5.40715 10.0705 6.57523 12.5932 8.38251 14.629L5.26716 17.7444C5.18358 17.8251 5.11691 17.9217 5.07105 18.0284C5.02518 18.1352 5.00104 18.25 5.00003 18.3662C4.99902 18.4824 5.02116 18.5977 5.06517 18.7052C5.10917 18.8128 5.17415 18.9105 5.25631 18.9926C5.33848 19.0748 5.43618 19.1398 5.54373 19.1838C5.65127 19.2278 5.76651 19.2499 5.8827 19.2489C5.9989 19.2479 6.11373 19.2238 6.22049 19.1779C6.32726 19.132 6.42382 19.0654 6.50455 18.9818L18.7559 6.7304C18.92 6.5663 19.0121 6.34375 19.0121 6.11171C19.0121 5.87966 18.92 5.65712 18.7559 5.49301Z" fill="#212121"/>
<path d="M3 1.23633H21V-0.763672H3V1.23633ZM23 3.23633V21.2363H25V3.23633H23ZM21 23.2363H3V25.2363H21V23.2363ZM1 21.2363V3.23633H-1V21.2363H1ZM3 23.2363C1.89543 23.2363 1 22.3409 1 21.2363H-1C-1 23.4455 0.790861 25.2363 3 25.2363V23.2363ZM23 21.2363C23 22.3409 22.1046 23.2363 21 23.2363V25.2363C23.2091 25.2363 25 23.4455 25 21.2363H23ZM21 1.23633C22.1046 1.23633 23 2.13176 23 3.23633H25C25 1.02719 23.2091 -0.763672 21 -0.763672V1.23633ZM3 -0.763672C0.790861 -0.763672 -1 1.02719 -1 3.23633H1C1 2.13176 1.89543 1.23633 3 1.23633V-0.763672Z" fill="#E6EBEF"/>
</svg>
