<svg width="24" height="25" viewBox="0 0 24 25" fill="none" xmlns="http://www.w3.org/2000/svg">
<path d="M0 3.23633C0 1.57947 1.34315 0.236328 3 0.236328H21C22.6569 0.236328 24 1.57947 24 3.23633V21.2363C24 22.8932 22.6569 24.2363 21 24.2363H3C1.34315 24.2363 0 22.8932 0 21.2363V3.23633Z" fill="#F8F9FA"/>
<g clip-path="url(#clip0_325_1212)">
<path d="M12.1421 11.7433C12.0941 11.7423 12.0481 11.7363 12.0001 11.7363C10.1001 11.7363 8.4001 12.4363 7.1001 13.8363L8.5001 15.2363C9.2981 14.3503 10.4121 13.8793 11.5601 13.7793L12.1421 11.7433Z" fill="#212121"/>
<path d="M14.13 12.0633L13.573 14.0123C14.297 14.2543 14.971 14.6483 15.5 15.2363L16.9 13.8363C16.11 12.9853 15.171 12.3973 14.13 12.0633Z" fill="#212121"/>
<path d="M12.848 9.27533L13.405 7.32933C12.942 7.27333 12.475 7.23633 12 7.23633C9 7.23633 6.2 8.33633 4 10.4363L5.4 11.8363C7.2 10.1363 9.5 9.23633 12 9.23633C12.286 9.23633 12.568 9.25133 12.848 9.27533Z" fill="#212121"/>
<path d="M15.3681 7.72931L14.8181 9.65331C16.2181 10.0813 17.5021 10.8393 18.5991 11.9363L20.0001 10.4363C18.6511 9.14931 17.0761 8.24131 15.3681 7.72931Z" fill="#212121"/>
<path d="M10.0009 20.2363C9.90889 20.2363 9.81689 20.2233 9.72589 20.1973C9.19489 20.0453 8.88689 19.4923 9.03789 18.9613L13.0379 4.9613C13.1899 4.4293 13.7489 4.1223 14.2739 4.2743C14.8049 4.4263 15.1129 4.9793 14.9619 5.5103L10.9619 19.5103C10.8359 19.9503 10.4359 20.2363 10.0009 20.2363Z" fill="#212121"/>
</g>
<path d="M3 1.23633H21V-0.763672H3V1.23633ZM23 3.23633V21.2363H25V3.23633H23ZM21 23.2363H3V25.2363H21V23.2363ZM1 21.2363V3.23633H-1V21.2363H1ZM3 23.2363C1.89543 23.2363 1 22.3409 1 21.2363H-1C-1 23.4455 0.790861 25.2363 3 25.2363V23.2363ZM23 21.2363C23 22.3409 22.1046 23.2363 21 23.2363V25.2363C23.2091 25.2363 25 23.4455 25 21.2363H23ZM21 1.23633C22.1046 1.23633 23 2.13176 23 3.23633H25C25 1.02719 23.2091 -0.763672 21 -0.763672V1.23633ZM3 -0.763672C0.790861 -0.763672 -1 1.02719 -1 3.23633H1C1 2.13176 1.89543 1.23633 3 1.23633V-0.763672Z" fill="#E6EBEF"/>
<defs>
<clipPath id="clip0_325_1212">
<rect width="16" height="16" fill="white" transform="translate(4 4.23633)"/>
</clipPath>
</defs>
</svg>
