<?xml version="1.0" encoding="UTF-8"?>
<svg width="51px" height="36px" viewBox="0 0 51 36" version="1.1" xmlns="http://www.w3.org/2000/svg" xmlns:xlink="http://www.w3.org/1999/xlink">
    <!-- Generator: Sketch 52.6 (67491) - http://www.bohemiancoding.com/sketch -->
    <title>PayPal_inactive Copy</title>
    <desc>Created with Sketch.</desc>
    <g id="Page-1" stroke="none" stroke-width="1" fill="none" fill-rule="evenodd">
        <g id="payment-page-copy-4" transform="translate(-162.000000, -652.000000)">
            <g id="PayPal_inactive-Copy" transform="translate(162.000000, 652.000000)">
                <path d="M34.7710686,26.2230774 C34.5552081,27.6127548 33.4711616,27.6127548 32.4217081,27.6127548 L31.8249291,27.6127548 L32.2445919,25.0174645 C32.2694988,24.8604968 32.4064872,24.7451419 32.5695686,24.7451419 L32.8433477,24.7451419 C33.5567547,24.7451419 34.2312198,24.7451419 34.5795221,25.1438516 C34.7868826,25.3817226 34.8505337,25.7349484 34.7710686,26.2230774 M37.1967314,23.5848194 C36.6351384,22.9381742 35.6388593,22.5959806 34.3150337,22.5959806 L30.3591733,22.5959806 C30.08915,22.5959806 29.8588593,22.7887548 29.8163593,23.0504323 L28.2167779,32.9810129 C28.1847547,33.1768839 28.3399291,33.3535935 28.5417547,33.3535935 L30.5718709,33.3535935 C30.7602547,33.3535935 30.9219523,33.2188839 30.9514058,33.0352065 L31.405464,30.2204323 C31.4475686,29.9581742 31.6778593,29.7657871 31.9476849,29.7657871 L33.1993593,29.7657871 C35.8053012,29.7657871 37.3088128,28.531529 37.7015919,26.0844968 C37.8794988,25.0147548 37.7083128,24.1735935 37.1967314,23.5848194" id="Fill-1" fill="#ADACAD"></path>
                <path d="M43.4975047,29.7881419 C43.3154465,30.8480129 42.4555628,31.558529 41.3600512,31.558529 C40.8111093,31.558529 40.370493,31.3858839 40.0880163,31.0585935 C39.8085047,30.7336258 39.7029465,30.2712387 39.7909116,29.7560129 C39.962493,28.7050452 40.8344349,27.970529 41.9131442,27.970529 C42.451214,27.970529 42.8882721,28.1456903 43.1762837,28.4760774 C43.4670628,28.8089806 43.5811209,29.2748516 43.4975047,29.7881419 M46.1370512,26.1780774 L44.2445163,26.1780774 C44.0818302,26.1780774 43.9438535,26.2936258 43.9197372,26.4505935 L43.8355279,26.9694968 L43.702493,26.7813677 C43.292714,26.1984 42.3788651,26.0036903 41.4662023,26.0036903 C39.3732256,26.0036903 37.5860512,27.5561419 37.2373535,29.7337548 C37.0574698,30.8195613 37.3132605,31.8583355 37.9426558,32.5827871 C38.5210512,33.2484 39.3457488,33.5259484 40.328586,33.5259484 C42.0145512,33.5259484 42.9497488,32.464529 42.9497488,32.464529 L42.8655395,32.9793677 C42.8339116,33.1769806 42.9886907,33.3533032 43.1911093,33.3533032 L44.8966442,33.3533032 C45.1666674,33.3533032 45.3971558,33.1601419 45.4394581,32.8980774 L46.463807,26.5508516 C46.4954349,26.3555613 46.3408535,26.1780774 46.1370512,26.1780774" id="Fill-3" fill="#ADACAD"></path>
                <path d="M50.5236442,22.5955742 L48.6959465,22.5955742 C48.5344465,22.5961548 48.3952837,22.7115097 48.3703767,22.8684774 L46.7470744,32.9809935 C46.7154465,33.1768645 46.8702256,33.3535742 47.0722488,33.3535742 L48.7044465,33.3535742 C48.9756558,33.3535742 49.2059465,33.1613806 49.2472605,32.8993161 L50.8486209,22.9685419 C50.8802488,22.7728645 50.7252721,22.5955742 50.5236442,22.5955742" id="Fill-5" fill="#ADACAD"></path>
                <path d="M15.2852733,29.7881419 C15.1024244,30.8480129 14.2437267,31.558529 13.1482151,31.558529 C12.5980872,31.558529 12.158657,31.3858839 11.8761802,31.0585935 C11.5962733,30.7336258 11.4899244,30.2712387 11.5790756,29.7560129 C11.7496686,28.7050452 12.6227965,27.970529 13.7015058,27.970529 C14.2395756,27.970529 14.6766337,28.1456903 14.964843,28.4760774 C15.2536453,28.8089806 15.3679012,29.2748516 15.2852733,29.7881419 M17.9260058,26.1780774 L16.0314942,26.1780774 C15.8701919,26.1780774 15.7308314,26.2936258 15.7061221,26.4505935 L15.6217151,26.9694968 L15.4892733,26.7813677 C15.0794942,26.1984 14.1650523,26.0036903 13.2527849,26.0036903 C11.1596105,26.0036903 9.3720407,27.5561419 9.0235407,29.7337548 C8.84286628,30.8195613 9.1000407,31.8583355 9.72923837,32.5827871 C10.3064477,33.2484 11.1325291,33.5259484 12.1149709,33.5259484 C13.8013314,33.5259484 14.7369244,32.464529 14.7369244,32.464529 L14.6523198,32.9793677 C14.6204942,33.1769806 14.7754709,33.3533032 14.9774942,33.3533032 L16.6836221,33.3533032 C16.9546337,33.3533032 17.1837384,33.1601419 17.2268314,32.8980774 L18.2503895,26.5508516 C18.2826105,26.3555613 18.1278314,26.1780774 17.9260058,26.1780774" id="Fill-10" fill="#737273"></path>
                <path d="M28.0130744,26.1780968 L26.1094698,26.1780968 C25.9282023,26.1780968 25.757807,26.2665484 25.6542256,26.4142258 L23.0291093,30.2006129 L21.9164,26.5624839 C21.8466209,26.334871 21.6321442,26.1784839 21.3890047,26.1784839 L19.518807,26.1784839 C19.2914814,26.1784839 19.1339349,26.3960323 19.206086,26.6056452 L21.3026209,32.6296452 L19.331214,35.3538387 C19.1760395,35.5679032 19.3325977,35.8636452 19.6000512,35.8636452 L21.5012837,35.8636452 C21.6811674,35.8636452 21.8507721,35.7773226 21.9529698,35.6325484 L28.283493,26.6855806 C28.4357023,26.4713226 28.2797372,26.1780968 28.0130744,26.1780968" id="Fill-12" fill="#737273"></path>
                <g id="Group-9" transform="translate(0.000000, 22.508903)" fill="#737273">
                    <path d="M6.55856047,3.71417419 C6.34230465,5.10385161 5.25786279,5.10385161 4.20939767,5.10385161 L3.6126186,5.10385161 L4.03109535,2.50856129 C4.05600233,2.35159355 4.19496744,2.23623871 4.35666512,2.23623871 L4.63024651,2.23623871 C5.34444419,2.23623871 6.0181186,2.23623871 6.36642093,2.63494839 C6.57417674,2.87281935 6.63763023,3.22604516 6.55856047,3.71417419 M8.98560698,1.07591613 C8.42342093,0.429270968 7.42615349,0.0870774194 6.10232791,0.0870774194 L2.14686279,0.0870774194 C1.87644419,0.0870774194 1.64595581,0.279851613 1.60385116,0.541529032 L0.00407209302,10.4721097 C-0.027555814,10.6679806 0.127223256,10.8446903 0.330234884,10.8446903 L2.2186186,10.8446903 C2.48903721,10.8446903 2.71952558,10.6524968 2.76163023,10.3904323 L3.19335116,7.71152903 C3.23486279,7.44927097 3.46554884,7.25688387 3.73596744,7.25688387 L4.98803721,7.25688387 C7.59338605,7.25688387 9.09729302,6.02262581 9.48967674,3.57559355 C9.66659535,2.50585161 9.49718837,1.66469032 8.98560698,1.07591613" id="Fill-7"></path>
                </g>
                <path d="M33.2923849,5.97005806 C33.0468733,5.69696129 32.7424547,5.47050968 32.3860477,5.28605806 C32.3670709,5.40470323 32.3457221,5.52644516 32.3212105,5.65128387 C32.2980826,5.7678 32.2727802,5.88121935 32.2464895,5.99347742 C31.4356291,9.46225161 29.1720593,10.9494774 26.2215709,11.2622516 C26.0248849,11.2831548 25.8254314,11.2986387 25.6228151,11.3092839 C25.4002337,11.3210903 25.1742919,11.3265097 24.9449895,11.3265097 L23.07835,11.3265097 C22.6298267,11.3265097 22.2520709,11.6452839 22.1820942,12.0788323 L21.3356523,17.3346387 L21.2261407,18.0134129 L20.9559198,19.695929 C20.9100593,19.979671 21.1340244,20.2368968 21.4273733,20.2368968 L24.7380244,20.2368968 C25.1300128,20.2368968 25.4630942,19.9579935 25.525164,19.5796065 L25.5575826,19.4145097 L26.1806523,15.5410258 L26.2209779,15.327929 C26.2818616,14.9478 26.6159314,14.6692839 27.0081174,14.6692839 L27.5032919,14.6692839 C30.7111523,14.6692839 33.2224081,13.3943806 33.9563733,9.7038 C34.2623733,8.16257419 34.1038384,6.87528387 33.2923849,5.97005806" id="Fill-14" fill="#ADACAD"></path>
                <path d="M32.3841105,5.28509032 C32.1797151,5.17921935 31.9585174,5.08825161 31.7217035,5.01025161 L31.6965988,5.00115484 L31.6525174,4.98721935 C31.6050756,4.97270323 31.557436,4.9581871 31.5086105,4.94386452 C31.3805174,4.90767097 31.2484709,4.87438065 31.1126686,4.84457419 C30.9764709,4.81515484 30.8367151,4.78921935 30.6926105,4.76696129 C30.1893314,4.68721935 29.6380174,4.64909032 29.0471686,4.64909032 L24.0596453,4.64909032 C23.9368895,4.64909032 23.8208547,4.6761871 23.7158895,4.72534839 C23.4857965,4.83315484 23.3148081,5.04625161 23.2738895,5.30715484 L22.2127733,11.8870258 L22.1821337,12.0792194 C22.2521105,11.6460581 22.630064,11.3270903 23.0783895,11.3270903 L24.9450291,11.3270903 C25.1741337,11.3270903 25.4002733,11.3212839 25.6228547,11.3092839 C25.8252733,11.2986387 26.0249244,11.2835419 26.2216105,11.2622516 C29.1722965,10.9498645 31.4356686,9.46225161 32.2465291,5.99367097 C32.2728198,5.88160645 32.2981221,5.76799355 32.32125,5.65147742 C32.3457616,5.52644516 32.3673081,5.40509032 32.3860872,5.28625161 L32.3841105,5.28509032 Z" id="Fill-19" fill="#908F90"></path>
                <g id="Group-18" transform="translate(16.604651, 0.057290)" fill="#737273">
                    <path d="M5.57722558,12.0218323 L5.60766744,11.8292516 L6.6689814,5.24957419 C6.7099,4.98905806 6.88088837,4.77557419 7.11117907,4.66776774 C7.21614419,4.6188 7.33217907,4.59150968 7.45473721,4.59150968 L12.4422605,4.59150968 C13.0331093,4.59150968 13.5844233,4.62963871 14.0875047,4.70938065 C14.231214,4.73183226 14.3709698,4.75776774 14.5077605,4.78699355 C14.6433651,4.8171871 14.7756093,4.85009032 14.9037023,4.88647742 C14.9523302,4.9008 14.9997721,4.91531613 15.0474116,4.92983226 L15.0916907,4.94357419 L15.1167953,4.95267097 C15.3534116,5.03105806 15.574807,5.12183226 15.7790047,5.22750968 L15.7817721,5.22847742 C16.0316326,3.66944516 15.7797953,2.6084129 14.9189233,1.64705806 C13.9698884,0.589316129 12.2572372,0.136219355 10.0654233,0.136219355 L3.70287674,0.136219355 C3.25494651,0.136219355 2.87284186,0.454993548 2.80385349,0.888929032 L0.153434884,17.3376387 C0.101248837,17.6631871 0.357632558,17.9564129 0.692888372,17.9564129 L4.6204814,17.9564129 L4.72999302,17.2776387 L5.57722558,12.0218323 Z" id="Fill-16"></path>
                </g>
            </g>
        </g>
    </g>
</svg>