<svg width="24" height="25" viewBox="0 0 24 25" fill="none" xmlns="http://www.w3.org/2000/svg">
<path d="M0 3.23633C0 1.57947 1.34315 0.236328 3 0.236328H21C22.6569 0.236328 24 1.57947 24 3.23633V21.2363C24 22.8932 22.6569 24.2363 21 24.2363H3C1.34315 24.2363 0 22.8932 0 21.2363V3.23633Z" fill="#F8F9FA"/>
<path d="M12 17.2363C11.4 17.2363 11 17.6363 11 18.2363V19.2363C11 19.8363 11.4 20.2363 12 20.2363C12.6 20.2363 13 19.8363 13 19.2363V18.2363C13 17.6363 12.6 17.2363 12 17.2363Z" fill="#212121"/>
<path d="M8 15.2363C7.4 15.2363 7 15.6363 7 16.2363V17.2363C7 17.8363 7.4 18.2363 8 18.2363C8.6 18.2363 9 17.8363 9 17.2363V16.2363C9 15.6363 8.6 15.2363 8 15.2363Z" fill="#212121"/>
<path d="M16 15.2363C15.4 15.2363 15 15.6363 15 16.2363V17.2363C15 17.8363 15.4 18.2363 16 18.2363C16.6 18.2363 17 17.8363 17 17.2363V16.2363C17 15.6363 16.6 15.2363 16 15.2363Z" fill="#212121"/>
<path d="M18.9 12.2363C18.5 9.13633 16.1 6.73633 13 6.33633V4.23633H11V6.33633C7.9 6.73633 5.5 9.13633 5.1 12.2363C4.4 12.2363 4 12.7363 4 13.2363C4 13.8363 4.4 14.2363 5 14.2363H19C19.6 14.2363 20 13.8363 20 13.2363C20 12.7363 19.6 12.2363 18.9 12.2363Z" fill="#212121"/>
<path d="M3 1.23633H21V-0.763672H3V1.23633ZM23 3.23633V21.2363H25V3.23633H23ZM21 23.2363H3V25.2363H21V23.2363ZM1 21.2363V3.23633H-1V21.2363H1ZM3 23.2363C1.89543 23.2363 1 22.3409 1 21.2363H-1C-1 23.4455 0.790861 25.2363 3 25.2363V23.2363ZM23 21.2363C23 22.3409 22.1046 23.2363 21 23.2363V25.2363C23.2091 25.2363 25 23.4455 25 21.2363H23ZM21 1.23633C22.1046 1.23633 23 2.13176 23 3.23633H25C25 1.02719 23.2091 -0.763672 21 -0.763672V1.23633ZM3 -0.763672C0.790861 -0.763672 -1 1.02719 -1 3.23633H1C1 2.13176 1.89543 1.23633 3 1.23633V-0.763672Z" fill="#E6EBEF"/>
</svg>
