<svg width="24" height="25" viewBox="0 0 24 25" fill="none" xmlns="http://www.w3.org/2000/svg">
<path d="M0 3.23633C0 1.57947 1.34315 0.236328 3 0.236328H21C22.6569 0.236328 24 1.57947 24 3.23633V21.2363C24 22.8932 22.6569 24.2363 21 24.2363H3C1.34315 24.2363 0 22.8932 0 21.2363V3.23633Z" fill="#F8F9FA"/>
<path d="M14 4.23633C12.6744 4.23792 11.4036 4.76521 10.4662 5.70255C9.52888 6.63989 9.00159 7.91073 9 9.23633V9.33633C7.87064 9.56686 6.8556 10.1805 6.12669 11.0734C5.39778 11.9663 4.99976 13.0837 5 14.2363H15C15.0002 13.0837 14.6022 11.9663 13.8733 11.0734C13.1444 10.1805 12.1294 9.56686 11 9.33633V9.23633C11 8.44068 11.3161 7.67762 11.8787 7.11501C12.4413 6.5524 13.2044 6.23633 14 6.23633C14.7956 6.23633 15.5587 6.5524 16.1213 7.11501C16.6839 7.67762 17 8.44068 17 9.23633V20.2363H19V9.23633C18.9984 7.91073 18.4711 6.63989 17.5338 5.70255C16.5964 4.76521 15.3256 4.23792 14 4.23633V4.23633Z" fill="#212121"/>
<path d="M7 18.2363C7.55228 18.2363 8 17.7886 8 17.2363C8 16.684 7.55228 16.2363 7 16.2363C6.44772 16.2363 6 16.684 6 17.2363C6 17.7886 6.44772 18.2363 7 18.2363Z" fill="#212121"/>
<path d="M13 18.2363C13.5523 18.2363 14 17.7886 14 17.2363C14 16.684 13.5523 16.2363 13 16.2363C12.4477 16.2363 12 16.684 12 17.2363C12 17.7886 12.4477 18.2363 13 18.2363Z" fill="#212121"/>
<path d="M10 20.2363C10.5523 20.2363 11 19.7886 11 19.2363C11 18.684 10.5523 18.2363 10 18.2363C9.44772 18.2363 9 18.684 9 19.2363C9 19.7886 9.44772 20.2363 10 20.2363Z" fill="#212121"/>
<path d="M3 1.23633H21V-0.763672H3V1.23633ZM23 3.23633V21.2363H25V3.23633H23ZM21 23.2363H3V25.2363H21V23.2363ZM1 21.2363V3.23633H-1V21.2363H1ZM3 23.2363C1.89543 23.2363 1 22.3409 1 21.2363H-1C-1 23.4455 0.790861 25.2363 3 25.2363V23.2363ZM23 21.2363C23 22.3409 22.1046 23.2363 21 23.2363V25.2363C23.2091 25.2363 25 23.4455 25 21.2363H23ZM21 1.23633C22.1046 1.23633 23 2.13176 23 3.23633H25C25 1.02719 23.2091 -0.763672 21 -0.763672V1.23633ZM3 -0.763672C0.790861 -0.763672 -1 1.02719 -1 3.23633H1C1 2.13176 1.89543 1.23633 3 1.23633V-0.763672Z" fill="#E6EBEF"/>
</svg>
