<svg width="24" height="25" viewBox="0 0 24 25" fill="none" xmlns="http://www.w3.org/2000/svg">
<path d="M0 3.23633C0 1.57947 1.34315 0.236328 3 0.236328H21C22.6569 0.236328 24 1.57947 24 3.23633V21.2363C24 22.8932 22.6569 24.2363 21 24.2363H3C1.34315 24.2363 0 22.8932 0 21.2363V3.23633Z" fill="#F8F9FA"/>
<path d="M16.9995 4.23633H6.99954C6.73432 4.23633 6.47997 4.34168 6.29243 4.52922C6.1049 4.71676 5.99954 4.97111 5.99954 5.23633C5.99954 5.50154 6.1049 5.7559 6.29243 5.94343C6.47997 6.13097 6.73432 6.23633 6.99954 6.23633H9.99954V9.23633H7.49954C7.26283 9.23644 7.03384 9.32051 6.8533 9.47359C6.67275 9.62667 6.55236 9.83883 6.51354 10.0723L5.01354 19.0723C4.98973 19.2155 4.99739 19.3622 5.03597 19.5021C5.07455 19.6421 5.14314 19.7719 5.23696 19.8827C5.33079 19.9934 5.4476 20.0825 5.57929 20.1435C5.71098 20.2046 5.85438 20.2363 5.99954 20.2363H15.9995C16.1447 20.2363 16.2881 20.2046 16.4198 20.1435C16.5515 20.0825 16.6683 19.9934 16.7621 19.8827C16.8559 19.7719 16.9245 19.6421 16.9631 19.5021C17.0017 19.3622 17.0093 19.2155 16.9855 19.0723L15.4855 10.0723C15.4467 9.83883 15.3263 9.62667 15.1458 9.47359C14.9652 9.32051 14.7362 9.23644 14.4995 9.23633H11.9995V6.23633H16.9995C17.2648 6.23633 17.5191 6.34168 17.7066 6.52922C17.8942 6.71676 17.9995 6.97111 17.9995 7.23633C17.9995 7.50154 18.1049 7.7559 18.2924 7.94343C18.48 8.13097 18.7343 8.23633 18.9995 8.23633C19.2648 8.23633 19.5191 8.13097 19.7066 7.94343C19.8942 7.7559 19.9995 7.50154 19.9995 7.23633C19.9995 6.44068 19.6835 5.67762 19.1209 5.11501C18.5583 4.5524 17.7952 4.23633 16.9995 4.23633V4.23633ZM13.6525 11.2363L14.1525 14.2363H7.84654L8.34654 11.2363H13.6525Z" fill="#212121"/>
<path d="M3 1.23633H21V-0.763672H3V1.23633ZM23 3.23633V21.2363H25V3.23633H23ZM21 23.2363H3V25.2363H21V23.2363ZM1 21.2363V3.23633H-1V21.2363H1ZM3 23.2363C1.89543 23.2363 1 22.3409 1 21.2363H-1C-1 23.4455 0.790861 25.2363 3 25.2363V23.2363ZM23 21.2363C23 22.3409 22.1046 23.2363 21 23.2363V25.2363C23.2091 25.2363 25 23.4455 25 21.2363H23ZM21 1.23633C22.1046 1.23633 23 2.13176 23 3.23633H25C25 1.02719 23.2091 -0.763672 21 -0.763672V1.23633ZM3 -0.763672C0.790861 -0.763672 -1 1.02719 -1 3.23633H1C1 2.13176 1.89543 1.23633 3 1.23633V-0.763672Z" fill="#E6EBEF"/>
</svg>
