<svg width="24" height="25" viewBox="0 0 24 25" fill="none" xmlns="http://www.w3.org/2000/svg">
<path d="M0 3.23633C0 1.57947 1.34315 0.236328 3 0.236328H21C22.6569 0.236328 24 1.57947 24 3.23633V21.2363C24 22.8932 22.6569 24.2363 21 24.2363H3C1.34315 24.2363 0 22.8932 0 21.2363V3.23633Z" fill="#F8F9FA"/>
<path d="M19 13.2363H5C4.73478 13.2363 4.48043 13.3417 4.29289 13.5292C4.10536 13.7168 4 13.9711 4 14.2363C4 14.5015 4.10536 14.7559 4.29289 14.9434C4.48043 15.131 4.73478 15.2363 5 15.2363H7V20.2363H9V15.2363H15V20.2363H17V15.2363H19C19.2652 15.2363 19.5196 15.131 19.7071 14.9434C19.8946 14.7559 20 14.5015 20 14.2363C20 13.9711 19.8946 13.7168 19.7071 13.5292C19.5196 13.3417 19.2652 13.2363 19 13.2363Z" fill="#212121"/>
<path d="M11 11.2363H13V9.23633H20C19.2691 7.73697 18.1315 6.4732 16.717 5.58914C15.3025 4.70509 13.668 4.23633 12 4.23633C10.332 4.23633 8.6975 4.70509 7.28301 5.58914C5.86852 6.4732 4.73094 7.73697 4 9.23633H11V11.2363Z" fill="#212121"/>
<path d="M3 1.23633H21V-0.763672H3V1.23633ZM23 3.23633V21.2363H25V3.23633H23ZM21 23.2363H3V25.2363H21V23.2363ZM1 21.2363V3.23633H-1V21.2363H1ZM3 23.2363C1.89543 23.2363 1 22.3409 1 21.2363H-1C-1 23.4455 0.790861 25.2363 3 25.2363V23.2363ZM23 21.2363C23 22.3409 22.1046 23.2363 21 23.2363V25.2363C23.2091 25.2363 25 23.4455 25 21.2363H23ZM21 1.23633C22.1046 1.23633 23 2.13176 23 3.23633H25C25 1.02719 23.2091 -0.763672 21 -0.763672V1.23633ZM3 -0.763672C0.790861 -0.763672 -1 1.02719 -1 3.23633H1C1 2.13176 1.89543 1.23633 3 1.23633V-0.763672Z" fill="#E6EBEF"/>
</svg>
