<svg width="24" height="24" viewBox="0 0 24 24" fill="none" xmlns="http://www.w3.org/2000/svg">
<path d="M0 3C0 1.34315 1.34315 0 3 0H21C22.6569 0 24 1.34315 24 3V21C24 22.6569 22.6569 24 21 24H3C1.34315 24 0 22.6569 0 21V3Z" fill="#F8F9FA"/>
<path d="M7.45215 15.0312H8.85059V12.9648H10.917V11.5664H8.85059V9.5H7.45215V11.5664H5.38574V12.9648H7.45215V15.0312ZM15.4414 16.3594C17.2383 16.3594 18.5234 15.3711 18.5195 14.0039C18.5234 13.0078 17.8906 12.2969 16.7148 12.1484V12.0859C17.6094 11.9258 18.2266 11.293 18.2227 10.3945C18.2266 9.13281 17.1211 8.14062 15.4648 8.14062C13.8242 8.14062 12.5898 9.10156 12.5664 10.4844H14.1875C14.207 9.875 14.7656 9.48047 15.457 9.48047C16.1406 9.48047 16.5977 9.89453 16.5938 10.4961C16.5977 11.125 16.0625 11.5508 15.293 11.5508H14.5469V12.793H15.293C16.1992 12.793 16.7656 13.2461 16.7617 13.8906C16.7656 14.5273 16.2188 14.9648 15.4453 14.9648C14.6992 14.9648 14.1406 14.5742 14.1094 13.9883H12.4063C12.4336 15.3867 13.6836 16.3594 15.4414 16.3594Z" fill="black"/>
<path d="M3 1H21V-1H3V1ZM23 3V21H25V3H23ZM21 23H3V25H21V23ZM1 21V3H-1V21H1ZM3 23C1.89543 23 1 22.1046 1 21H-1C-1 23.2091 0.790861 25 3 25V23ZM23 21C23 22.1046 22.1046 23 21 23V25C23.2091 25 25 23.2091 25 21H23ZM21 1C22.1046 1 23 1.89543 23 3H25C25 0.790861 23.2091 -1 21 -1V1ZM3 -1C0.790861 -1 -1 0.790861 -1 3H1C1 1.89543 1.89543 1 3 1V-1Z" fill="#E6EBEF"/>
</svg>
