<svg width="24" height="25" viewBox="0 0 24 25" fill="none" xmlns="http://www.w3.org/2000/svg">
<path d="M0 3.23633C0 1.57947 1.34315 0.236328 3 0.236328H21C22.6569 0.236328 24 1.57947 24 3.23633V21.2363C24 22.8932 22.6569 24.2363 21 24.2363H3C1.34315 24.2363 0 22.8932 0 21.2363V3.23633Z" fill="#F8F9FA"/>
<g clip-path="url(#clip0_324_555)">
<g clip-path="url(#clip1_324_555)">
<path d="M19 13.2363H5C5 16.0363 7.2 18.2363 10 18.2363V20.2363H14V18.2363C16.8 18.2363 19 16.0363 19 13.2363Z" fill="black"/>
<path d="M17 11.2363H7V6.23633C7 5.13633 7.9 4.23633 9 4.23633H15C16.1 4.23633 17 5.13633 17 6.23633V11.2363Z" fill="black"/>
</g>
</g>
<path d="M3 1.23633H21V-0.763672H3V1.23633ZM23 3.23633V21.2363H25V3.23633H23ZM21 23.2363H3V25.2363H21V23.2363ZM1 21.2363V3.23633H-1V21.2363H1ZM3 23.2363C1.89543 23.2363 1 22.3409 1 21.2363H-1C-1 23.4455 0.790861 25.2363 3 25.2363V23.2363ZM23 21.2363C23 22.3409 22.1046 23.2363 21 23.2363V25.2363C23.2091 25.2363 25 23.4455 25 21.2363H23ZM21 1.23633C22.1046 1.23633 23 2.13176 23 3.23633H25C25 1.02719 23.2091 -0.763672 21 -0.763672V1.23633ZM3 -0.763672C0.790861 -0.763672 -1 1.02719 -1 3.23633H1C1 2.13176 1.89543 1.23633 3 1.23633V-0.763672Z" fill="#E6EBEF"/>
<defs>
<clipPath id="clip0_324_555">
<rect width="16" height="16" fill="white" transform="translate(4 4.23633)"/>
</clipPath>
<clipPath id="clip1_324_555">
<rect width="16" height="16" fill="white" transform="translate(4 4.23633)"/>
</clipPath>
</defs>
</svg>
