<svg width="24" height="25" viewBox="0 0 24 25" fill="none" xmlns="http://www.w3.org/2000/svg">
<path d="M0 3.23633C0 1.57947 1.34315 0.236328 3 0.236328H21C22.6569 0.236328 24 1.57947 24 3.23633V21.2363C24 22.8932 22.6569 24.2363 21 24.2363H3C1.34315 24.2363 0 22.8932 0 21.2363V3.23633Z" fill="#F8F9FA"/>
<path d="M16 4.23633H8C5.8 4.23633 4 6.83633 4 10.2363V19.2363C4 19.8363 4.4 20.2363 5 20.2363H14C14.6 20.2363 15 19.8363 15 19.2363V16.2363H16C18.2 16.2363 20 13.6363 20 10.2363C20 6.83633 18.2 4.23633 16 4.23633ZM8 6.23633C8.9 6.23633 10 7.93633 10 10.2363C10 12.5363 8.9 14.2363 8 14.2363C7.1 14.2363 6 12.5363 6 10.2363C6 7.93633 7.1 6.23633 8 6.23633Z" fill="#212121"/>
<path d="M3 1.23633H21V-0.763672H3V1.23633ZM23 3.23633V21.2363H25V3.23633H23ZM21 23.2363H3V25.2363H21V23.2363ZM1 21.2363V3.23633H-1V21.2363H1ZM3 23.2363C1.89543 23.2363 1 22.3409 1 21.2363H-1C-1 23.4455 0.790861 25.2363 3 25.2363V23.2363ZM23 21.2363C23 22.3409 22.1046 23.2363 21 23.2363V25.2363C23.2091 25.2363 25 23.4455 25 21.2363H23ZM21 1.23633C22.1046 1.23633 23 2.13176 23 3.23633H25C25 1.02719 23.2091 -0.763672 21 -0.763672V1.23633ZM3 -0.763672C0.790861 -0.763672 -1 1.02719 -1 3.23633H1C1 2.13176 1.89543 1.23633 3 1.23633V-0.763672Z" fill="#E6EBEF"/>
</svg>
