<svg width="24" height="25" viewBox="0 0 24 25" fill="none" xmlns="http://www.w3.org/2000/svg">
<path d="M0 3.23633C0 1.57947 1.34315 0.236328 3 0.236328H21C22.6569 0.236328 24 1.57947 24 3.23633V21.2363C24 22.8932 22.6569 24.2363 21 24.2363H3C1.34315 24.2363 0 22.8932 0 21.2363V3.23633Z" fill="#F8F9FA"/>
<path d="M20 19.4473H19C17.7267 19.4525 16.4905 19.0185 15.5 18.2183C14.5071 19.0154 13.2715 19.449 11.9982 19.4472C10.725 19.4454 9.49062 19.0082 8.5 18.2083C7.51017 19.0109 6.27431 19.4484 5 19.4473H4V17.4473H5C5.52199 17.4503 6.03812 17.3372 6.5111 17.1164C6.98408 16.8955 7.40211 16.5724 7.735 16.1703L8.499 15.2603L9.265 16.1693C9.59899 16.5686 10.0163 16.8899 10.4877 17.1107C10.9591 17.3314 11.4731 17.4463 11.9937 17.4473C12.5142 17.4483 13.0286 17.3352 13.5008 17.1162C13.973 16.8971 14.3916 16.5774 14.727 16.1793L15.5 15.2363L16.273 16.1793C16.6047 16.5801 17.0216 16.9018 17.4934 17.1212C17.9651 17.3405 18.4798 17.4519 19 17.4473H20V19.4473Z" fill="#212121"/>
<path d="M20 14.4473H19C17.7267 14.4525 16.4905 14.0185 15.5 13.2183C14.5071 14.0154 13.2715 14.449 11.9982 14.4472C10.725 14.4454 9.49062 14.0082 8.5 13.2083C7.51017 14.0109 6.27431 14.4484 5 14.4473H4V12.4473H5C5.52199 12.4503 6.03812 12.3372 6.5111 12.1164C6.98408 11.8955 7.40211 11.5724 7.735 11.1703L8.499 10.2603L9.265 11.1693C9.59899 11.5686 10.0163 11.8899 10.4877 12.1107C10.9591 12.3314 11.4731 12.4463 11.9937 12.4473C12.5142 12.4483 13.0286 12.3352 13.5008 12.1162C13.973 11.8971 14.3916 11.5774 14.727 11.1793L15.5 10.2363L16.273 11.1793C16.6047 11.5801 17.0216 11.9018 17.4934 12.1212C17.9651 12.3405 18.4798 12.4519 19 12.4473H20V14.4473Z" fill="#212121"/>
<path d="M20 9.44733H19C17.7267 9.45252 16.4905 9.01845 15.5 8.21833C14.5095 9.01845 13.2733 9.45252 12 9.44733C10.7258 9.4479 9.49007 9.01046 8.5 8.20833C7.51017 9.01089 6.27431 9.44839 5 9.44733H4V7.44733H5C5.52199 7.45026 6.03812 7.33722 6.5111 7.11638C6.98408 6.89554 7.40211 6.57241 7.735 6.17033L8.5 5.26033L9.266 6.16933C9.59868 6.57146 10.0165 6.8947 10.4893 7.11571C10.9621 7.33672 11.4781 7.44999 12 7.44733C12.5202 7.45193 13.0349 7.3405 13.5066 7.12115C13.9784 6.90181 14.3953 6.58006 14.727 6.17933L15.5 5.23633L16.273 6.17933C16.6047 6.58006 17.0216 6.90181 17.4934 7.12115C17.9651 7.3405 18.4798 7.45193 19 7.44733H20V9.44733Z" fill="#212121"/>
<path d="M3 1.23633H21V-0.763672H3V1.23633ZM23 3.23633V21.2363H25V3.23633H23ZM21 23.2363H3V25.2363H21V23.2363ZM1 21.2363V3.23633H-1V21.2363H1ZM3 23.2363C1.89543 23.2363 1 22.3409 1 21.2363H-1C-1 23.4455 0.790861 25.2363 3 25.2363V23.2363ZM23 21.2363C23 22.3409 22.1046 23.2363 21 23.2363V25.2363C23.2091 25.2363 25 23.4455 25 21.2363H23ZM21 1.23633C22.1046 1.23633 23 2.13176 23 3.23633H25C25 1.02719 23.2091 -0.763672 21 -0.763672V1.23633ZM3 -0.763672C0.790861 -0.763672 -1 1.02719 -1 3.23633H1C1 2.13176 1.89543 1.23633 3 1.23633V-0.763672Z" fill="#E6EBEF"/>
</svg>
