<svg width="24" height="25" viewBox="0 0 24 25" fill="none" xmlns="http://www.w3.org/2000/svg">
<path d="M0 3.23633C0 1.57947 1.34315 0.236328 3 0.236328H21C22.6569 0.236328 24 1.57947 24 3.23633V21.2363C24 22.8932 22.6569 24.2363 21 24.2363H3C1.34315 24.2363 0 22.8932 0 21.2363V3.23633Z" fill="#F8F9FA"/>
<path d="M15.9719 20.2363C16.5242 20.2363 16.9719 19.7886 16.9719 19.2363C16.9719 18.684 16.5242 18.2363 15.9719 18.2363C15.4196 18.2363 14.9719 18.684 14.9719 19.2363C14.9719 19.7886 15.4196 20.2363 15.9719 20.2363Z" fill="#212121"/>
<path d="M10.9719 8.23633C12.0765 8.23633 12.9719 7.3409 12.9719 6.23633C12.9719 5.13176 12.0765 4.23633 10.9719 4.23633C9.86735 4.23633 8.97192 5.13176 8.97192 6.23633C8.97192 7.3409 9.86735 8.23633 10.9719 8.23633Z" fill="#212121"/>
<path d="M14.9719 17.2363H16.9719V14.2363C16.9719 13.9711 16.8666 13.7168 16.679 13.5292C16.4915 13.3417 16.2371 13.2363 15.9719 13.2363H11.9719V11.2363H14.9719C15.2371 11.2363 15.4915 11.131 15.679 10.9434C15.8666 10.7559 15.9719 10.5015 15.9719 10.2363C15.9719 9.97111 15.8666 9.71676 15.679 9.52922C15.4915 9.34169 15.2371 9.23633 14.9719 9.23633H10.9719C10.7067 9.23633 10.4524 9.34169 10.2648 9.52922C10.0773 9.71676 9.97192 9.97111 9.97192 10.2363V14.2363C9.97192 14.5015 10.0773 14.7559 10.2648 14.9434C10.4524 15.131 10.7067 15.2363 10.9719 15.2363H14.9719V17.2363Z" fill="#212121"/>
<path d="M11.972 16.2363C11.9744 16.588 11.8841 16.934 11.7102 17.2397C11.5362 17.5453 11.2847 17.7997 10.9811 17.9771C10.6775 18.1545 10.3325 18.2488 9.98081 18.2503C9.62915 18.2518 9.28329 18.1606 8.97812 17.9859C8.67296 17.8111 8.41926 17.559 8.24262 17.2549C8.06599 16.9508 7.97265 16.6055 7.97203 16.2539C7.9714 15.9022 8.06351 15.5566 8.23907 15.2519C8.41463 14.9472 8.66743 14.6941 8.97197 14.5183V12.3963C8.25112 12.5859 7.59787 12.9739 7.08642 13.5161C6.57496 14.0583 6.22579 14.7331 6.07855 15.4638C5.9313 16.1945 5.99189 16.9518 6.25343 17.6498C6.51497 18.3478 6.96698 18.9584 7.55814 19.4124C8.14929 19.8664 8.85591 20.1456 9.59774 20.2182C10.3396 20.2908 11.0869 20.154 11.7549 19.8232C12.4228 19.4924 12.9847 18.981 13.3766 18.3469C13.7685 17.7129 13.9748 16.9817 13.972 16.2363H11.972Z" fill="#212121"/>
<path d="M3 1.23633H21V-0.763672H3V1.23633ZM23 3.23633V21.2363H25V3.23633H23ZM21 23.2363H3V25.2363H21V23.2363ZM1 21.2363V3.23633H-1V21.2363H1ZM3 23.2363C1.89543 23.2363 1 22.3409 1 21.2363H-1C-1 23.4455 0.790861 25.2363 3 25.2363V23.2363ZM23 21.2363C23 22.3409 22.1046 23.2363 21 23.2363V25.2363C23.2091 25.2363 25 23.4455 25 21.2363H23ZM21 1.23633C22.1046 1.23633 23 2.13176 23 3.23633H25C25 1.02719 23.2091 -0.763672 21 -0.763672V1.23633ZM3 -0.763672C0.790861 -0.763672 -1 1.02719 -1 3.23633H1C1 2.13176 1.89543 1.23633 3 1.23633V-0.763672Z" fill="#E6EBEF"/>
</svg>
