<svg width="24" height="25" viewBox="0 0 24 25" fill="none" xmlns="http://www.w3.org/2000/svg">
<path d="M0 3.23633C0 1.57947 1.34315 0.236328 3 0.236328H21C22.6569 0.236328 24 1.57947 24 3.23633V21.2363C24 22.8932 22.6569 24.2363 21 24.2363H3C1.34315 24.2363 0 22.8932 0 21.2363V3.23633Z" fill="#F8F9FA"/>
<path d="M12 18.2363C12.8284 18.2363 13.5 17.5648 13.5 16.7363C13.5 15.9079 12.8284 15.2363 12 15.2363C11.1716 15.2363 10.5 15.9079 10.5 16.7363C10.5 17.5648 11.1716 18.2363 12 18.2363Z" fill="#212121"/>
<path d="M15.5001 14.2363C14.6001 13.2363 13.3001 12.7363 12.0001 12.7363C10.7001 12.7363 9.4001 13.2363 8.5001 14.2363L7.1001 12.8363C8.4001 11.4363 10.1001 10.7363 12.0001 10.7363C13.9001 10.7363 15.6001 11.4363 16.9001 12.8363L15.5001 14.2363Z" fill="#212121"/>
<path d="M12 6.23633C9 6.23633 6.2 7.33633 4 9.43633L5.4 10.8363C7.2 9.13633 9.5 8.23633 12 8.23633C14.5 8.23633 16.8 9.13633 18.6 10.9363L20 9.43633C17.8 7.33633 15 6.23633 12 6.23633Z" fill="#212121"/>
<path d="M3 1.23633H21V-0.763672H3V1.23633ZM23 3.23633V21.2363H25V3.23633H23ZM21 23.2363H3V25.2363H21V23.2363ZM1 21.2363V3.23633H-1V21.2363H1ZM3 23.2363C1.89543 23.2363 1 22.3409 1 21.2363H-1C-1 23.4455 0.790861 25.2363 3 25.2363V23.2363ZM23 21.2363C23 22.3409 22.1046 23.2363 21 23.2363V25.2363C23.2091 25.2363 25 23.4455 25 21.2363H23ZM21 1.23633C22.1046 1.23633 23 2.13176 23 3.23633H25C25 1.02719 23.2091 -0.763672 21 -0.763672V1.23633ZM3 -0.763672C0.790861 -0.763672 -1 1.02719 -1 3.23633H1C1 2.13176 1.89543 1.23633 3 1.23633V-0.763672Z" fill="#E6EBEF"/>
</svg>
