<svg width="24" height="24" viewBox="0 0 24 24" fill="none" xmlns="http://www.w3.org/2000/svg">
<path d="M9 12L11 14L15 10M21 12C21 13.1819 20.7672 14.3523 20.3149 15.4442C19.8626 16.5361 19.1997 17.5283 18.364 18.364C17.5282 19.1997 16.5361 19.8627 15.4442 20.3149C14.3522 20.7672 13.1819 21 12 21C10.8181 21 9.64778 20.7672 8.55585 20.3149C7.46392 19.8627 6.47177 19.1997 5.63604 18.364C4.80031 17.5283 4.13738 16.5361 3.68508 15.4442C3.23279 14.3523 3 13.1819 3 12C3 9.61308 3.94821 7.3239 5.63604 5.63607C7.32387 3.94824 9.61305 3.00003 12 3.00003C14.3869 3.00003 16.6761 3.94824 18.364 5.63607C20.0518 7.3239 21 9.61308 21 12Z" stroke="black" stroke-width="2" stroke-linecap="round" stroke-linejoin="round"/>
</svg>
