<svg width="493" height="494" viewBox="0 0 493 494" fill="none" xmlns="http://www.w3.org/2000/svg">
<path d="M180.207 360.525C154.153 347.723 131.38 329.121 113.634 306.147C95.8889 283.174 83.6435 256.44 77.8382 227.997C72.0328 199.554 72.822 170.16 80.145 142.07C87.468 113.979 101.13 87.9408 120.083 65.9525C139.035 43.9642 162.774 26.611 189.477 15.2251C216.18 3.83908 245.136 -1.27686 274.124 0.269946C303.112 1.81676 331.36 9.98519 356.699 24.1482C382.039 38.3112 403.796 58.0921 420.301 81.9724L380.795 109.277C368.462 91.4326 352.204 76.6514 333.269 66.0682C314.334 55.485 293.226 49.3812 271.565 48.2253C249.904 47.0695 228.266 50.8923 208.313 59.4004C188.359 67.9085 170.621 80.8756 156.459 97.3062C142.296 113.737 132.087 133.194 126.615 154.184C121.143 175.175 120.554 197.139 124.892 218.393C129.23 239.647 138.38 259.624 151.64 276.79C164.9 293.957 181.918 307.857 201.386 317.424L180.207 360.525Z" fill="#3B82F6"/>
<path d="M179.69 19.7303C214.203 2.64069 253.095 -3.55701 291.211 1.95866C329.327 7.47432 364.867 24.4429 393.12 50.6153L360.484 85.8456C339.372 66.2884 312.815 53.6087 284.333 49.4872C255.852 45.3656 226.79 49.9968 201 62.7669L179.69 19.7303Z" fill="#1D4ED8"/>
<path d="M342.885 17.1498C369.293 29.2021 392.589 47.1454 410.984 69.6023C429.379 92.0591 442.384 118.432 449 146.697C455.616 174.962 455.667 204.367 449.15 232.655C442.633 260.943 429.721 287.362 411.404 309.883C393.088 332.404 369.855 350.429 343.489 362.573C317.122 374.718 288.324 380.66 259.304 379.942C230.284 379.224 201.814 371.867 176.08 358.434C150.346 345.001 128.032 325.85 110.851 302.452L149.56 274.029C162.398 291.513 179.072 305.824 198.302 315.861C217.532 325.899 238.806 331.397 260.491 331.933C282.176 332.469 303.695 328.029 323.398 318.954C343.1 309.879 360.46 296.411 374.147 279.582C387.834 262.753 397.482 243.012 402.352 221.874C407.222 200.736 407.184 178.763 402.24 157.642C397.296 136.521 387.579 116.814 373.833 100.033C360.088 83.2527 342.68 69.8447 322.946 60.8387L342.885 17.1498Z" fill="#10B981"/>
<path d="M342.885 17.1498C369.943 29.4984 393.724 48.0268 412.314 71.2438L374.827 101.26C360.935 83.9113 343.165 70.0661 322.946 60.8387L342.885 17.1498Z" fill="#059669"/>
<path d="M251.945 211H250.536C250.452 210.595 250.306 210.239 250.098 209.932C249.893 209.625 249.643 209.367 249.348 209.159C249.056 208.947 248.732 208.788 248.376 208.682C248.02 208.576 247.649 208.523 247.263 208.523C246.558 208.523 245.92 208.701 245.348 209.057C244.78 209.413 244.327 209.938 243.99 210.631C243.657 211.324 243.49 212.174 243.49 213.182C243.49 214.189 243.657 215.04 243.99 215.733C244.327 216.426 244.78 216.951 245.348 217.307C245.92 217.663 246.558 217.841 247.263 217.841C247.649 217.841 248.02 217.788 248.376 217.682C248.732 217.576 249.056 217.419 249.348 217.21C249.643 216.998 249.893 216.739 250.098 216.432C250.306 216.121 250.452 215.765 250.536 215.364H251.945C251.839 215.958 251.645 216.491 251.365 216.96C251.085 217.43 250.736 217.83 250.32 218.159C249.903 218.485 249.435 218.733 248.916 218.903C248.401 219.074 247.85 219.159 247.263 219.159C246.27 219.159 245.388 218.917 244.615 218.432C243.842 217.947 243.234 217.258 242.791 216.364C242.348 215.47 242.126 214.409 242.126 213.182C242.126 211.955 242.348 210.894 242.791 210C243.234 209.106 243.842 208.417 244.615 207.932C245.388 207.447 246.27 207.205 247.263 207.205C247.85 207.205 248.401 207.29 248.916 207.46C249.435 207.631 249.903 207.881 250.32 208.21C250.736 208.536 251.085 208.934 251.365 209.403C251.645 209.869 251.839 210.402 251.945 211ZM257.585 219.182C256.797 219.182 256.106 218.994 255.511 218.619C254.92 218.244 254.458 217.72 254.125 217.045C253.795 216.371 253.631 215.583 253.631 214.682C253.631 213.773 253.795 212.979 254.125 212.301C254.458 211.623 254.92 211.097 255.511 210.722C256.106 210.347 256.797 210.159 257.585 210.159C258.373 210.159 259.063 210.347 259.653 210.722C260.248 211.097 260.71 211.623 261.04 212.301C261.373 212.979 261.54 213.773 261.54 214.682C261.54 215.583 261.373 216.371 261.04 217.045C260.71 217.72 260.248 218.244 259.653 218.619C259.063 218.994 258.373 219.182 257.585 219.182ZM257.585 217.977C258.184 217.977 258.676 217.824 259.062 217.517C259.449 217.21 259.735 216.807 259.92 216.307C260.106 215.807 260.199 215.265 260.199 214.682C260.199 214.098 260.106 213.555 259.92 213.051C259.735 212.547 259.449 212.14 259.062 211.83C258.676 211.519 258.184 211.364 257.585 211.364C256.987 211.364 256.494 211.519 256.108 211.83C255.722 212.14 255.436 212.547 255.25 213.051C255.064 213.555 254.972 214.098 254.972 214.682C254.972 215.265 255.064 215.807 255.25 216.307C255.436 216.807 255.722 217.21 256.108 217.517C256.494 217.824 256.987 217.977 257.585 217.977ZM269.087 215.432V210.273H270.428V219H269.087V217.523H268.996C268.791 217.966 268.473 218.343 268.041 218.653C267.609 218.96 267.064 219.114 266.405 219.114C265.859 219.114 265.375 218.994 264.95 218.756C264.526 218.513 264.193 218.15 263.95 217.665C263.708 217.176 263.587 216.561 263.587 215.818V210.273H264.928V215.727C264.928 216.364 265.106 216.871 265.462 217.25C265.821 217.629 266.28 217.818 266.837 217.818C267.17 217.818 267.509 217.733 267.854 217.562C268.202 217.392 268.494 217.131 268.729 216.778C268.967 216.426 269.087 215.977 269.087 215.432ZM274.224 213.75V219H272.884V210.273H274.179V211.636H274.293C274.497 211.193 274.808 210.837 275.224 210.568C275.641 210.295 276.179 210.159 276.838 210.159C277.429 210.159 277.946 210.28 278.389 210.523C278.832 210.761 279.177 211.125 279.423 211.614C279.67 212.098 279.793 212.712 279.793 213.455V219H278.452V213.545C278.452 212.86 278.274 212.326 277.918 211.943C277.562 211.557 277.073 211.364 276.452 211.364C276.024 211.364 275.641 211.456 275.304 211.642C274.971 211.828 274.707 212.098 274.514 212.455C274.321 212.811 274.224 213.242 274.224 213.75ZM286.038 210.273V211.409H281.516V210.273H286.038ZM282.834 208.182H284.175V216.5C284.175 216.879 284.23 217.163 284.339 217.352C284.453 217.538 284.597 217.663 284.771 217.727C284.949 217.788 285.137 217.818 285.334 217.818C285.482 217.818 285.603 217.811 285.697 217.795C285.792 217.777 285.868 217.761 285.925 217.75L286.197 218.955C286.107 218.989 285.98 219.023 285.817 219.057C285.654 219.095 285.447 219.114 285.197 219.114C284.819 219.114 284.447 219.032 284.084 218.869C283.724 218.706 283.425 218.458 283.186 218.125C282.951 217.792 282.834 217.371 282.834 216.864V208.182Z" fill="#9CA3AF"/>
<path d="M248.774 158.614C250.206 158.625 251.638 158.898 253.07 159.432C254.501 159.966 255.808 160.852 256.99 162.091C258.172 163.318 259.121 164.994 259.837 167.119C260.553 169.244 260.911 171.909 260.911 175.114C260.911 178.216 260.615 180.972 260.024 183.381C259.445 185.778 258.604 187.801 257.501 189.449C256.411 191.097 255.081 192.347 253.513 193.199C251.956 194.051 250.195 194.477 248.229 194.477C246.274 194.477 244.53 194.091 242.996 193.318C241.473 192.534 240.223 191.449 239.246 190.062C238.28 188.665 237.661 187.045 237.388 185.205H241.547C241.922 186.807 242.666 188.131 243.78 189.176C244.905 190.21 246.388 190.727 248.229 190.727C250.922 190.727 253.047 189.551 254.604 187.199C256.172 184.847 256.956 181.523 256.956 177.227H256.683C256.047 178.182 255.291 179.006 254.416 179.699C253.541 180.392 252.57 180.926 251.501 181.301C250.433 181.676 249.297 181.864 248.092 181.864C246.092 181.864 244.257 181.369 242.587 180.381C240.928 179.381 239.598 178.011 238.598 176.273C237.609 174.523 237.115 172.523 237.115 170.273C237.115 168.136 237.592 166.182 238.547 164.409C239.513 162.625 240.865 161.205 242.604 160.148C244.354 159.091 246.411 158.58 248.774 158.614ZM248.774 162.364C247.342 162.364 246.053 162.722 244.905 163.438C243.768 164.142 242.865 165.097 242.195 166.301C241.536 167.494 241.206 168.818 241.206 170.273C241.206 171.727 241.524 173.051 242.161 174.244C242.808 175.426 243.689 176.369 244.803 177.074C245.928 177.767 247.206 178.114 248.638 178.114C249.717 178.114 250.723 177.903 251.655 177.483C252.587 177.051 253.399 176.466 254.092 175.727C254.797 174.977 255.348 174.131 255.746 173.188C256.143 172.233 256.342 171.239 256.342 170.205C256.342 168.841 256.013 167.562 255.354 166.369C254.706 165.176 253.808 164.21 252.661 163.472C251.524 162.733 250.229 162.364 248.774 162.364ZM279.205 194.477C277.773 194.455 276.341 194.182 274.909 193.659C273.477 193.136 272.17 192.256 270.989 191.017C269.807 189.767 268.858 188.08 268.142 185.955C267.426 183.818 267.068 181.136 267.068 177.909C267.068 174.818 267.358 172.08 267.938 169.693C268.517 167.295 269.358 165.278 270.46 163.642C271.563 161.994 272.892 160.744 274.449 159.892C276.017 159.04 277.784 158.614 279.75 158.614C281.705 158.614 283.443 159.006 284.966 159.79C286.5 160.562 287.75 161.642 288.716 163.028C289.682 164.415 290.307 166.011 290.591 167.818H286.432C286.045 166.25 285.295 164.949 284.182 163.915C283.068 162.881 281.591 162.364 279.75 162.364C277.045 162.364 274.915 163.54 273.358 165.892C271.813 168.244 271.034 171.545 271.023 175.795H271.295C271.932 174.83 272.688 174.006 273.562 173.324C274.449 172.631 275.426 172.097 276.494 171.722C277.563 171.347 278.693 171.159 279.886 171.159C281.886 171.159 283.716 171.659 285.375 172.659C287.034 173.648 288.364 175.017 289.364 176.767C290.364 178.506 290.864 180.5 290.864 182.75C290.864 184.909 290.381 186.886 289.415 188.682C288.449 190.466 287.091 191.886 285.341 192.943C283.602 193.989 281.557 194.5 279.205 194.477ZM279.205 190.727C280.636 190.727 281.92 190.369 283.057 189.653C284.205 188.937 285.108 187.977 285.767 186.773C286.438 185.568 286.773 184.227 286.773 182.75C286.773 181.307 286.449 179.994 285.801 178.812C285.165 177.619 284.284 176.67 283.159 175.966C282.045 175.261 280.773 174.909 279.341 174.909C278.261 174.909 277.256 175.125 276.324 175.557C275.392 175.977 274.574 176.557 273.869 177.295C273.176 178.034 272.631 178.881 272.233 179.835C271.835 180.778 271.636 181.773 271.636 182.818C271.636 184.205 271.96 185.5 272.608 186.705C273.267 187.909 274.165 188.881 275.301 189.619C276.449 190.358 277.75 190.727 279.205 190.727Z" fill="#1F2937"/>
<path d="M288.841 489.159C288.174 489.159 287.574 489.027 287.04 488.761C286.506 488.496 286.078 488.133 285.756 487.67C285.434 487.208 285.258 486.682 285.227 486.091H286.591C286.644 486.617 286.883 487.053 287.307 487.398C287.735 487.739 288.246 487.909 288.841 487.909C289.318 487.909 289.742 487.797 290.114 487.574C290.489 487.35 290.782 487.044 290.994 486.653C291.21 486.259 291.318 485.814 291.318 485.318C291.318 484.811 291.206 484.358 290.983 483.96C290.763 483.559 290.46 483.242 290.074 483.011C289.688 482.78 289.246 482.663 288.75 482.659C288.394 482.655 288.028 482.71 287.653 482.824C287.278 482.934 286.97 483.076 286.727 483.25L285.409 483.091L286.114 477.364H292.159V478.614H287.295L286.886 482.045H286.955C287.193 481.856 287.492 481.699 287.852 481.574C288.212 481.449 288.587 481.386 288.977 481.386C289.689 481.386 290.324 481.557 290.881 481.898C291.441 482.235 291.881 482.697 292.199 483.284C292.521 483.871 292.682 484.542 292.682 485.295C292.682 486.038 292.515 486.701 292.182 487.284C291.852 487.864 291.398 488.322 290.818 488.659C290.239 488.992 289.58 489.159 288.841 489.159Z" fill="black"/>
<path d="M308.871 477.364V489H307.507L301.166 479.864H301.053V489H299.643V477.364H301.007L307.371 486.523H307.484V477.364H308.871ZM315.168 489.182C314.327 489.182 313.601 488.996 312.991 488.625C312.385 488.25 311.918 487.727 311.588 487.057C311.262 486.383 311.099 485.598 311.099 484.705C311.099 483.811 311.262 483.023 311.588 482.341C311.918 481.655 312.376 481.121 312.963 480.739C313.554 480.352 314.243 480.159 315.031 480.159C315.486 480.159 315.935 480.235 316.378 480.386C316.821 480.538 317.224 480.784 317.588 481.125C317.952 481.462 318.241 481.909 318.457 482.466C318.673 483.023 318.781 483.708 318.781 484.523V485.091H312.054V483.932H317.418C317.418 483.439 317.319 483 317.122 482.614C316.929 482.227 316.652 481.922 316.293 481.699C315.937 481.475 315.516 481.364 315.031 481.364C314.497 481.364 314.035 481.496 313.645 481.761C313.259 482.023 312.961 482.364 312.753 482.784C312.545 483.205 312.44 483.655 312.44 484.136V484.909C312.44 485.568 312.554 486.127 312.781 486.585C313.012 487.04 313.332 487.386 313.741 487.625C314.151 487.86 314.626 487.977 315.168 487.977C315.52 487.977 315.838 487.928 316.122 487.83C316.41 487.727 316.658 487.576 316.866 487.375C317.075 487.17 317.236 486.917 317.349 486.614L318.645 486.977C318.509 487.417 318.279 487.803 317.957 488.136C317.635 488.466 317.238 488.723 316.764 488.909C316.291 489.091 315.759 489.182 315.168 489.182ZM324.48 489.182C323.639 489.182 322.914 488.996 322.304 488.625C321.698 488.25 321.23 487.727 320.901 487.057C320.575 486.383 320.412 485.598 320.412 484.705C320.412 483.811 320.575 483.023 320.901 482.341C321.23 481.655 321.688 481.121 322.276 480.739C322.866 480.352 323.556 480.159 324.344 480.159C324.798 480.159 325.247 480.235 325.69 480.386C326.134 480.538 326.537 480.784 326.901 481.125C327.264 481.462 327.554 481.909 327.77 482.466C327.986 483.023 328.094 483.708 328.094 484.523V485.091H321.366V483.932H326.73C326.73 483.439 326.632 483 326.435 482.614C326.241 482.227 325.965 481.922 325.605 481.699C325.249 481.475 324.829 481.364 324.344 481.364C323.81 481.364 323.348 481.496 322.957 481.761C322.571 482.023 322.274 482.364 322.065 482.784C321.857 483.205 321.753 483.655 321.753 484.136V484.909C321.753 485.568 321.866 486.127 322.094 486.585C322.325 487.04 322.645 487.386 323.054 487.625C323.463 487.86 323.938 487.977 324.48 487.977C324.832 487.977 325.151 487.928 325.435 487.83C325.723 487.727 325.971 487.576 326.179 487.375C326.387 487.17 326.548 486.917 326.662 486.614L327.957 486.977C327.821 487.417 327.592 487.803 327.27 488.136C326.948 488.466 326.55 488.723 326.077 488.909C325.603 489.091 325.071 489.182 324.48 489.182ZM333.429 489.182C332.702 489.182 332.06 488.998 331.503 488.631C330.946 488.259 330.51 487.737 330.196 487.062C329.882 486.384 329.724 485.583 329.724 484.659C329.724 483.742 329.882 482.947 330.196 482.273C330.51 481.598 330.948 481.078 331.509 480.71C332.069 480.343 332.717 480.159 333.452 480.159C334.02 480.159 334.469 480.254 334.798 480.443C335.132 480.629 335.385 480.841 335.56 481.08C335.738 481.314 335.876 481.508 335.974 481.659H336.088V477.364H337.429V489H336.134V487.659H335.974C335.876 487.818 335.736 488.019 335.554 488.261C335.372 488.5 335.113 488.714 334.776 488.903C334.438 489.089 333.99 489.182 333.429 489.182ZM333.611 487.977C334.149 487.977 334.603 487.837 334.974 487.557C335.346 487.273 335.628 486.881 335.821 486.381C336.014 485.877 336.111 485.295 336.111 484.636C336.111 483.985 336.016 483.415 335.827 482.926C335.637 482.434 335.357 482.051 334.986 481.778C334.615 481.502 334.156 481.364 333.611 481.364C333.043 481.364 332.569 481.509 332.19 481.801C331.815 482.089 331.533 482.481 331.344 482.977C331.158 483.47 331.065 484.023 331.065 484.636C331.065 485.258 331.16 485.822 331.349 486.33C331.543 486.833 331.827 487.235 332.202 487.534C332.58 487.83 333.05 487.977 333.611 487.977ZM346.253 482.227L345.048 482.568C344.973 482.367 344.861 482.172 344.713 481.983C344.569 481.79 344.372 481.631 344.122 481.506C343.872 481.381 343.552 481.318 343.162 481.318C342.628 481.318 342.183 481.441 341.827 481.688C341.474 481.93 341.298 482.239 341.298 482.614C341.298 482.947 341.42 483.21 341.662 483.403C341.904 483.597 342.283 483.758 342.798 483.886L344.094 484.205C344.874 484.394 345.455 484.684 345.838 485.074C346.221 485.46 346.412 485.958 346.412 486.568C346.412 487.068 346.268 487.515 345.98 487.909C345.696 488.303 345.298 488.614 344.787 488.841C344.276 489.068 343.681 489.182 343.003 489.182C342.113 489.182 341.376 488.989 340.793 488.602C340.209 488.216 339.84 487.652 339.685 486.909L340.957 486.591C341.079 487.061 341.308 487.413 341.645 487.648C341.986 487.883 342.431 488 342.98 488C343.605 488 344.101 487.867 344.469 487.602C344.84 487.333 345.026 487.011 345.026 486.636C345.026 486.333 344.92 486.08 344.707 485.875C344.495 485.667 344.17 485.511 343.73 485.409L342.276 485.068C341.476 484.879 340.889 484.585 340.514 484.188C340.143 483.786 339.957 483.284 339.957 482.682C339.957 482.189 340.096 481.754 340.372 481.375C340.652 480.996 341.033 480.699 341.514 480.483C341.999 480.267 342.548 480.159 343.162 480.159C344.026 480.159 344.704 480.348 345.196 480.727C345.692 481.106 346.045 481.606 346.253 482.227ZM354.521 477.364V489H353.112V477.364H354.521ZM357.165 489V480.273H358.46V481.636H358.574C358.756 481.17 359.049 480.809 359.455 480.551C359.86 480.29 360.347 480.159 360.915 480.159C361.491 480.159 361.97 480.29 362.352 480.551C362.739 480.809 363.04 481.17 363.256 481.636H363.347C363.57 481.186 363.905 480.828 364.352 480.562C364.799 480.294 365.335 480.159 365.96 480.159C366.741 480.159 367.379 480.403 367.875 480.892C368.371 481.377 368.619 482.133 368.619 483.159V489H367.278V483.159C367.278 482.515 367.102 482.055 366.75 481.778C366.398 481.502 365.983 481.364 365.506 481.364C364.892 481.364 364.417 481.549 364.08 481.92C363.742 482.288 363.574 482.754 363.574 483.318V489H362.21V483.023C362.21 482.527 362.049 482.127 361.727 481.824C361.405 481.517 360.991 481.364 360.483 481.364C360.134 481.364 359.809 481.456 359.506 481.642C359.206 481.828 358.964 482.085 358.778 482.415C358.597 482.741 358.506 483.117 358.506 483.545V489H357.165ZM371.071 492.273V480.273H372.366V481.659H372.526C372.624 481.508 372.76 481.314 372.935 481.08C373.113 480.841 373.366 480.629 373.696 480.443C374.029 480.254 374.48 480.159 375.048 480.159C375.783 480.159 376.431 480.343 376.991 480.71C377.552 481.078 377.99 481.598 378.304 482.273C378.618 482.947 378.776 483.742 378.776 484.659C378.776 485.583 378.618 486.384 378.304 487.062C377.99 487.737 377.554 488.259 376.997 488.631C376.44 488.998 375.798 489.182 375.071 489.182C374.51 489.182 374.062 489.089 373.724 488.903C373.387 488.714 373.128 488.5 372.946 488.261C372.764 488.019 372.624 487.818 372.526 487.659H372.412V492.273H371.071ZM372.389 484.636C372.389 485.295 372.486 485.877 372.679 486.381C372.872 486.881 373.154 487.273 373.526 487.557C373.897 487.837 374.351 487.977 374.889 487.977C375.45 487.977 375.918 487.83 376.293 487.534C376.671 487.235 376.955 486.833 377.145 486.33C377.338 485.822 377.435 485.258 377.435 484.636C377.435 484.023 377.34 483.47 377.151 482.977C376.965 482.481 376.683 482.089 376.304 481.801C375.929 481.509 375.457 481.364 374.889 481.364C374.344 481.364 373.885 481.502 373.514 481.778C373.143 482.051 372.863 482.434 372.673 482.926C372.484 483.415 372.389 483.985 372.389 484.636ZM380.821 489V480.273H382.116V481.591H382.207C382.366 481.159 382.654 480.809 383.071 480.54C383.488 480.271 383.957 480.136 384.48 480.136C384.579 480.136 384.702 480.138 384.849 480.142C384.997 480.146 385.109 480.152 385.185 480.159V481.523C385.139 481.511 385.035 481.494 384.872 481.472C384.713 481.445 384.545 481.432 384.366 481.432C383.942 481.432 383.563 481.521 383.23 481.699C382.901 481.873 382.639 482.116 382.446 482.426C382.257 482.733 382.162 483.083 382.162 483.477V489H380.821ZM390.054 489.182C389.266 489.182 388.575 488.994 387.98 488.619C387.389 488.244 386.927 487.72 386.594 487.045C386.264 486.371 386.099 485.583 386.099 484.682C386.099 483.773 386.264 482.979 386.594 482.301C386.927 481.623 387.389 481.097 387.98 480.722C388.575 480.347 389.266 480.159 390.054 480.159C390.842 480.159 391.531 480.347 392.122 480.722C392.717 481.097 393.179 481.623 393.509 482.301C393.842 482.979 394.009 483.773 394.009 484.682C394.009 485.583 393.842 486.371 393.509 487.045C393.179 487.72 392.717 488.244 392.122 488.619C391.531 488.994 390.842 489.182 390.054 489.182ZM390.054 487.977C390.652 487.977 391.145 487.824 391.531 487.517C391.918 487.21 392.204 486.807 392.389 486.307C392.575 485.807 392.668 485.265 392.668 484.682C392.668 484.098 392.575 483.555 392.389 483.051C392.204 482.547 391.918 482.14 391.531 481.83C391.145 481.519 390.652 481.364 390.054 481.364C389.455 481.364 388.963 481.519 388.577 481.83C388.19 482.14 387.904 482.547 387.719 483.051C387.533 483.555 387.44 484.098 387.44 484.682C387.44 485.265 387.533 485.807 387.719 486.307C387.904 486.807 388.19 487.21 388.577 487.517C388.963 487.824 389.455 487.977 390.054 487.977ZM402.879 480.273L399.652 489H398.288L395.061 480.273H396.516L398.925 487.227H399.016L401.425 480.273H402.879ZM407.996 489.182C407.155 489.182 406.429 488.996 405.82 488.625C405.214 488.25 404.746 487.727 404.416 487.057C404.09 486.383 403.928 485.598 403.928 484.705C403.928 483.811 404.09 483.023 404.416 482.341C404.746 481.655 405.204 481.121 405.791 480.739C406.382 480.352 407.071 480.159 407.859 480.159C408.314 480.159 408.763 480.235 409.206 480.386C409.649 480.538 410.053 480.784 410.416 481.125C410.78 481.462 411.07 481.909 411.286 482.466C411.501 483.023 411.609 483.708 411.609 484.523V485.091H404.882V483.932H410.246C410.246 483.439 410.147 483 409.95 482.614C409.757 482.227 409.481 481.922 409.121 481.699C408.765 481.475 408.344 481.364 407.859 481.364C407.325 481.364 406.863 481.496 406.473 481.761C406.087 482.023 405.789 482.364 405.581 482.784C405.373 483.205 405.268 483.655 405.268 484.136V484.909C405.268 485.568 405.382 486.127 405.609 486.585C405.84 487.04 406.161 487.386 406.57 487.625C406.979 487.86 407.454 487.977 407.996 487.977C408.348 487.977 408.666 487.928 408.95 487.83C409.238 487.727 409.486 487.576 409.695 487.375C409.903 487.17 410.064 486.917 410.178 486.614L411.473 486.977C411.337 487.417 411.107 487.803 410.786 488.136C410.464 488.466 410.066 488.723 409.592 488.909C409.119 489.091 408.587 489.182 407.996 489.182ZM413.649 489V480.273H414.945V481.636H415.058C415.24 481.17 415.534 480.809 415.939 480.551C416.344 480.29 416.831 480.159 417.399 480.159C417.975 480.159 418.454 480.29 418.837 480.551C419.223 480.809 419.524 481.17 419.74 481.636H419.831C420.054 481.186 420.39 480.828 420.837 480.562C421.284 480.294 421.82 480.159 422.445 480.159C423.225 480.159 423.863 480.403 424.359 480.892C424.856 481.377 425.104 482.133 425.104 483.159V489H423.763V483.159C423.763 482.515 423.587 482.055 423.234 481.778C422.882 481.502 422.467 481.364 421.99 481.364C421.376 481.364 420.901 481.549 420.564 481.92C420.227 482.288 420.058 482.754 420.058 483.318V489H418.695V483.023C418.695 482.527 418.534 482.127 418.212 481.824C417.89 481.517 417.475 481.364 416.967 481.364C416.619 481.364 416.293 481.456 415.99 481.642C415.691 481.828 415.448 482.085 415.263 482.415C415.081 482.741 414.99 483.117 414.99 483.545V489H413.649ZM431.214 489.182C430.374 489.182 429.648 488.996 429.038 488.625C428.432 488.25 427.964 487.727 427.635 487.057C427.309 486.383 427.146 485.598 427.146 484.705C427.146 483.811 427.309 483.023 427.635 482.341C427.964 481.655 428.423 481.121 429.01 480.739C429.601 480.352 430.29 480.159 431.078 480.159C431.533 480.159 431.982 480.235 432.425 480.386C432.868 480.538 433.271 480.784 433.635 481.125C433.999 481.462 434.288 481.909 434.504 482.466C434.72 483.023 434.828 483.708 434.828 484.523V485.091H428.101V483.932H433.464C433.464 483.439 433.366 483 433.169 482.614C432.976 482.227 432.699 481.922 432.339 481.699C431.983 481.475 431.563 481.364 431.078 481.364C430.544 481.364 430.082 481.496 429.692 481.761C429.305 482.023 429.008 482.364 428.8 482.784C428.591 483.205 428.487 483.655 428.487 484.136V484.909C428.487 485.568 428.601 486.127 428.828 486.585C429.059 487.04 429.379 487.386 429.788 487.625C430.197 487.86 430.673 487.977 431.214 487.977C431.567 487.977 431.885 487.928 432.169 487.83C432.457 487.727 432.705 487.576 432.913 487.375C433.122 487.17 433.283 486.917 433.396 486.614L434.692 486.977C434.555 487.417 434.326 487.803 434.004 488.136C433.682 488.466 433.285 488.723 432.811 488.909C432.338 489.091 431.805 489.182 431.214 489.182ZM438.209 483.75V489H436.868V480.273H438.163V481.636H438.277C438.482 481.193 438.792 480.837 439.209 480.568C439.625 480.295 440.163 480.159 440.822 480.159C441.413 480.159 441.93 480.28 442.374 480.523C442.817 480.761 443.161 481.125 443.408 481.614C443.654 482.098 443.777 482.712 443.777 483.455V489H442.436V483.545C442.436 482.86 442.258 482.326 441.902 481.943C441.546 481.557 441.057 481.364 440.436 481.364C440.008 481.364 439.625 481.456 439.288 481.642C438.955 481.828 438.692 482.098 438.499 482.455C438.305 482.811 438.209 483.242 438.209 483.75ZM450.023 480.273V481.409H445.5V480.273H450.023ZM446.818 478.182H448.159V486.5C448.159 486.879 448.214 487.163 448.324 487.352C448.438 487.538 448.581 487.663 448.756 487.727C448.934 487.788 449.121 487.818 449.318 487.818C449.466 487.818 449.587 487.811 449.682 487.795C449.777 487.777 449.852 487.761 449.909 487.75L450.182 488.955C450.091 488.989 449.964 489.023 449.801 489.057C449.638 489.095 449.432 489.114 449.182 489.114C448.803 489.114 448.432 489.032 448.068 488.869C447.708 488.706 447.409 488.458 447.17 488.125C446.936 487.792 446.818 487.371 446.818 486.864V478.182Z" fill="#4B5563"/>
<rect x="259" y="474" width="18" height="18" rx="3" fill="#1D4ED8"/>
<path d="M30.2955 477.364V489H28.8864V478.841H28.8182L25.9773 480.727V479.295L28.8864 477.364H30.2955ZM37.4375 489.159C36.5814 489.159 35.8523 488.926 35.25 488.46C34.6477 487.991 34.1875 487.311 33.8693 486.42C33.5511 485.527 33.392 484.447 33.392 483.182C33.392 481.924 33.5511 480.85 33.8693 479.96C34.1913 479.066 34.6534 478.384 35.2557 477.915C35.8617 477.441 36.589 477.205 37.4375 477.205C38.286 477.205 39.0114 477.441 39.6136 477.915C40.2197 478.384 40.6818 479.066 41 479.96C41.322 480.85 41.483 481.924 41.483 483.182C41.483 484.447 41.3239 485.527 41.0057 486.42C40.6875 487.311 40.2273 487.991 39.625 488.46C39.0227 488.926 38.2936 489.159 37.4375 489.159ZM37.4375 487.909C38.286 487.909 38.9451 487.5 39.4148 486.682C39.8845 485.864 40.1193 484.697 40.1193 483.182C40.1193 482.174 40.0114 481.316 39.7955 480.608C39.5833 479.9 39.2765 479.36 38.875 478.989C38.4773 478.617 37.9981 478.432 37.4375 478.432C36.5966 478.432 35.9394 478.847 35.4659 479.676C34.9924 480.502 34.7557 481.67 34.7557 483.182C34.7557 484.189 34.8617 485.045 35.0739 485.75C35.286 486.455 35.5909 486.991 35.9886 487.358C36.3902 487.725 36.8731 487.909 37.4375 487.909Z" fill="black"/>
<path d="M48.3466 489V477.364H55.3693V478.614H49.7557V482.545H55.0057V483.795H49.7557V487.75H55.4602V489H48.3466ZM58.7273 480.273L60.8182 483.841L62.9091 480.273H64.4545L61.6364 484.636L64.4545 489H62.9091L60.8182 485.614L58.7273 489H57.1818L59.9545 484.636L57.1818 480.273H58.7273ZM69.554 489.182C68.7358 489.182 68.0313 488.989 67.4403 488.602C66.8494 488.216 66.3949 487.684 66.0767 487.006C65.7585 486.328 65.5994 485.553 65.5994 484.682C65.5994 483.795 65.7623 483.013 66.0881 482.335C66.4176 481.653 66.8759 481.121 67.4631 480.739C68.054 480.352 68.7434 480.159 69.5312 480.159C70.1449 480.159 70.6979 480.273 71.1903 480.5C71.6828 480.727 72.0862 481.045 72.4006 481.455C72.715 481.864 72.91 482.341 72.9858 482.886H71.6449C71.5426 482.489 71.3153 482.136 70.9631 481.83C70.6146 481.519 70.1449 481.364 69.554 481.364C69.0313 481.364 68.5729 481.5 68.179 481.773C67.7888 482.042 67.4839 482.422 67.2642 482.915C67.0483 483.403 66.9403 483.977 66.9403 484.636C66.9403 485.311 67.0464 485.898 67.2585 486.398C67.4744 486.898 67.7775 487.286 68.1676 487.562C68.5616 487.839 69.0237 487.977 69.554 487.977C69.9025 487.977 70.2188 487.917 70.5028 487.795C70.7869 487.674 71.0275 487.5 71.2244 487.273C71.4214 487.045 71.5616 486.773 71.6449 486.455H72.9858C72.91 486.97 72.7225 487.434 72.4233 487.847C72.1278 488.256 71.7358 488.581 71.2472 488.824C70.7623 489.062 70.1979 489.182 69.554 489.182ZM78.6051 489.182C77.7642 489.182 77.0388 488.996 76.429 488.625C75.8229 488.25 75.3551 487.727 75.0256 487.057C74.6998 486.383 74.5369 485.598 74.5369 484.705C74.5369 483.811 74.6998 483.023 75.0256 482.341C75.3551 481.655 75.8134 481.121 76.4006 480.739C76.9915 480.352 77.6809 480.159 78.4688 480.159C78.9233 480.159 79.3722 480.235 79.8153 480.386C80.2585 480.538 80.6619 480.784 81.0256 481.125C81.3892 481.462 81.679 481.909 81.8949 482.466C82.1108 483.023 82.2188 483.708 82.2188 484.523V485.091H75.4915V483.932H80.8551C80.8551 483.439 80.7566 483 80.5597 482.614C80.3665 482.227 80.09 481.922 79.7301 481.699C79.3741 481.475 78.9536 481.364 78.4688 481.364C77.9347 481.364 77.4725 481.496 77.0824 481.761C76.696 482.023 76.3987 482.364 76.1903 482.784C75.982 483.205 75.8778 483.655 75.8778 484.136V484.909C75.8778 485.568 75.9915 486.127 76.2188 486.585C76.4498 487.04 76.7699 487.386 77.179 487.625C77.5881 487.86 78.0634 487.977 78.6051 487.977C78.9574 487.977 79.2756 487.928 79.5597 487.83C79.8475 487.727 80.0956 487.576 80.304 487.375C80.5123 487.17 80.6733 486.917 80.7869 486.614L82.0824 486.977C81.946 487.417 81.7169 487.803 81.3949 488.136C81.0729 488.466 80.6752 488.723 80.2017 488.909C79.7282 489.091 79.196 489.182 78.6051 489.182ZM87.9176 489.182C87.0767 489.182 86.3513 488.996 85.7415 488.625C85.1354 488.25 84.6676 487.727 84.3381 487.057C84.0123 486.383 83.8494 485.598 83.8494 484.705C83.8494 483.811 84.0123 483.023 84.3381 482.341C84.6676 481.655 85.1259 481.121 85.7131 480.739C86.304 480.352 86.9934 480.159 87.7812 480.159C88.2358 480.159 88.6847 480.235 89.1278 480.386C89.571 480.538 89.9744 480.784 90.3381 481.125C90.7017 481.462 90.9915 481.909 91.2074 482.466C91.4233 483.023 91.5312 483.708 91.5312 484.523V485.091H84.804V483.932H90.1676C90.1676 483.439 90.0691 483 89.8722 482.614C89.679 482.227 89.4025 481.922 89.0426 481.699C88.6866 481.475 88.2661 481.364 87.7812 481.364C87.2472 481.364 86.785 481.496 86.3949 481.761C86.0085 482.023 85.7112 482.364 85.5028 482.784C85.2945 483.205 85.1903 483.655 85.1903 484.136V484.909C85.1903 485.568 85.304 486.127 85.5312 486.585C85.7623 487.04 86.0824 487.386 86.4915 487.625C86.9006 487.86 87.3759 487.977 87.9176 487.977C88.2699 487.977 88.5881 487.928 88.8722 487.83C89.16 487.727 89.4081 487.576 89.6165 487.375C89.8248 487.17 89.9858 486.917 90.0994 486.614L91.3949 486.977C91.2585 487.417 91.0294 487.803 90.7074 488.136C90.3854 488.466 89.9877 488.723 89.5142 488.909C89.0407 489.091 88.5085 489.182 87.9176 489.182ZM96.8665 489.182C96.1392 489.182 95.4972 488.998 94.9403 488.631C94.3835 488.259 93.9479 487.737 93.6335 487.062C93.3191 486.384 93.1619 485.583 93.1619 484.659C93.1619 483.742 93.3191 482.947 93.6335 482.273C93.9479 481.598 94.3854 481.078 94.946 480.71C95.5066 480.343 96.1544 480.159 96.8892 480.159C97.4574 480.159 97.9063 480.254 98.2358 480.443C98.5691 480.629 98.8229 480.841 98.9972 481.08C99.1752 481.314 99.3134 481.508 99.4119 481.659H99.5256V477.364H100.866V489H99.571V487.659H99.4119C99.3134 487.818 99.1733 488.019 98.9915 488.261C98.8097 488.5 98.5502 488.714 98.2131 488.903C97.8759 489.089 97.4271 489.182 96.8665 489.182ZM97.0483 487.977C97.5862 487.977 98.0407 487.837 98.4119 487.557C98.7831 487.273 99.0653 486.881 99.2585 486.381C99.4517 485.877 99.5483 485.295 99.5483 484.636C99.5483 483.985 99.4536 483.415 99.2642 482.926C99.0748 482.434 98.7945 482.051 98.4233 481.778C98.0521 481.502 97.5938 481.364 97.0483 481.364C96.4801 481.364 96.0066 481.509 95.6278 481.801C95.2528 482.089 94.9706 482.481 94.7812 482.977C94.5956 483.47 94.5028 484.023 94.5028 484.636C94.5028 485.258 94.5975 485.822 94.7869 486.33C94.9801 486.833 95.2642 487.235 95.6392 487.534C96.018 487.83 96.4877 487.977 97.0483 487.977ZM109.69 482.227L108.486 482.568C108.41 482.367 108.298 482.172 108.151 481.983C108.007 481.79 107.81 481.631 107.56 481.506C107.31 481.381 106.99 481.318 106.599 481.318C106.065 481.318 105.62 481.441 105.264 481.688C104.912 481.93 104.736 482.239 104.736 482.614C104.736 482.947 104.857 483.21 105.099 483.403C105.342 483.597 105.721 483.758 106.236 483.886L107.531 484.205C108.312 484.394 108.893 484.684 109.276 485.074C109.658 485.46 109.849 485.958 109.849 486.568C109.849 487.068 109.705 487.515 109.418 487.909C109.134 488.303 108.736 488.614 108.224 488.841C107.713 489.068 107.118 489.182 106.44 489.182C105.55 489.182 104.813 488.989 104.23 488.602C103.647 488.216 103.277 487.652 103.122 486.909L104.395 486.591C104.516 487.061 104.745 487.413 105.082 487.648C105.423 487.883 105.868 488 106.418 488C107.043 488 107.539 487.867 107.906 487.602C108.277 487.333 108.463 487.011 108.463 486.636C108.463 486.333 108.357 486.08 108.145 485.875C107.933 485.667 107.607 485.511 107.168 485.409L105.713 485.068C104.914 484.879 104.327 484.585 103.952 484.188C103.58 483.786 103.395 483.284 103.395 482.682C103.395 482.189 103.533 481.754 103.81 481.375C104.09 480.996 104.471 480.699 104.952 480.483C105.437 480.267 105.986 480.159 106.599 480.159C107.463 480.159 108.141 480.348 108.634 480.727C109.13 481.106 109.482 481.606 109.69 482.227ZM116.55 489V477.364H123.572V478.614H117.959V482.545H123.209V483.795H117.959V487.75H123.663V489H116.55ZM126.93 480.273L129.021 483.841L131.112 480.273H132.658L129.839 484.636L132.658 489H131.112L129.021 485.614L126.93 489H125.385L128.158 484.636L125.385 480.273H126.93ZM134.571 492.273V480.273H135.866V481.659H136.026C136.124 481.508 136.26 481.314 136.435 481.08C136.613 480.841 136.866 480.629 137.196 480.443C137.529 480.254 137.98 480.159 138.548 480.159C139.283 480.159 139.931 480.343 140.491 480.71C141.052 481.078 141.49 481.598 141.804 482.273C142.118 482.947 142.276 483.742 142.276 484.659C142.276 485.583 142.118 486.384 141.804 487.062C141.49 487.737 141.054 488.259 140.497 488.631C139.94 488.998 139.298 489.182 138.571 489.182C138.01 489.182 137.562 489.089 137.224 488.903C136.887 488.714 136.628 488.5 136.446 488.261C136.264 488.019 136.124 487.818 136.026 487.659H135.912V492.273H134.571ZM135.889 484.636C135.889 485.295 135.986 485.877 136.179 486.381C136.372 486.881 136.654 487.273 137.026 487.557C137.397 487.837 137.851 487.977 138.389 487.977C138.95 487.977 139.418 487.83 139.793 487.534C140.171 487.235 140.455 486.833 140.645 486.33C140.838 485.822 140.935 485.258 140.935 484.636C140.935 484.023 140.84 483.47 140.651 482.977C140.465 482.481 140.183 482.089 139.804 481.801C139.429 481.509 138.957 481.364 138.389 481.364C137.844 481.364 137.385 481.502 137.014 481.778C136.643 482.051 136.363 482.434 136.173 482.926C135.984 483.415 135.889 483.985 135.889 484.636ZM147.98 489.182C147.139 489.182 146.414 488.996 145.804 488.625C145.198 488.25 144.73 487.727 144.401 487.057C144.075 486.383 143.912 485.598 143.912 484.705C143.912 483.811 144.075 483.023 144.401 482.341C144.73 481.655 145.188 481.121 145.776 480.739C146.366 480.352 147.056 480.159 147.844 480.159C148.298 480.159 148.747 480.235 149.19 480.386C149.634 480.538 150.037 480.784 150.401 481.125C150.764 481.462 151.054 481.909 151.27 482.466C151.486 483.023 151.594 483.708 151.594 484.523V485.091H144.866V483.932H150.23C150.23 483.439 150.132 483 149.935 482.614C149.741 482.227 149.465 481.922 149.105 481.699C148.749 481.475 148.329 481.364 147.844 481.364C147.31 481.364 146.848 481.496 146.457 481.761C146.071 482.023 145.774 482.364 145.565 482.784C145.357 483.205 145.253 483.655 145.253 484.136V484.909C145.253 485.568 145.366 486.127 145.594 486.585C145.825 487.04 146.145 487.386 146.554 487.625C146.963 487.86 147.438 487.977 147.98 487.977C148.332 487.977 148.651 487.928 148.935 487.83C149.223 487.727 149.471 487.576 149.679 487.375C149.887 487.17 150.048 486.917 150.162 486.614L151.457 486.977C151.321 487.417 151.092 487.803 150.77 488.136C150.448 488.466 150.05 488.723 149.577 488.909C149.103 489.091 148.571 489.182 147.98 489.182ZM157.179 489.182C156.361 489.182 155.656 488.989 155.065 488.602C154.474 488.216 154.02 487.684 153.702 487.006C153.384 486.328 153.224 485.553 153.224 484.682C153.224 483.795 153.387 483.013 153.713 482.335C154.043 481.653 154.501 481.121 155.088 480.739C155.679 480.352 156.368 480.159 157.156 480.159C157.77 480.159 158.323 480.273 158.815 480.5C159.308 480.727 159.711 481.045 160.026 481.455C160.34 481.864 160.535 482.341 160.611 482.886H159.27C159.168 482.489 158.94 482.136 158.588 481.83C158.24 481.519 157.77 481.364 157.179 481.364C156.656 481.364 156.198 481.5 155.804 481.773C155.414 482.042 155.109 482.422 154.889 482.915C154.673 483.403 154.565 483.977 154.565 484.636C154.565 485.311 154.671 485.898 154.884 486.398C155.099 486.898 155.402 487.286 155.793 487.562C156.187 487.839 156.649 487.977 157.179 487.977C157.527 487.977 157.844 487.917 158.128 487.795C158.412 487.674 158.652 487.5 158.849 487.273C159.046 487.045 159.187 486.773 159.27 486.455H160.611C160.535 486.97 160.348 487.434 160.048 487.847C159.753 488.256 159.361 488.581 158.872 488.824C158.387 489.062 157.823 489.182 157.179 489.182ZM166.366 480.273V481.409H161.844V480.273H166.366ZM163.162 478.182H164.503V486.5C164.503 486.879 164.558 487.163 164.668 487.352C164.781 487.538 164.925 487.663 165.099 487.727C165.277 487.788 165.465 487.818 165.662 487.818C165.81 487.818 165.931 487.811 166.026 487.795C166.12 487.777 166.196 487.761 166.253 487.75L166.526 488.955C166.435 488.989 166.308 489.023 166.145 489.057C165.982 489.095 165.776 489.114 165.526 489.114C165.147 489.114 164.776 489.032 164.412 488.869C164.052 488.706 163.753 488.458 163.514 488.125C163.279 487.792 163.162 487.371 163.162 486.864V478.182ZM170.952 489.205C170.399 489.205 169.897 489.1 169.446 488.892C168.995 488.68 168.637 488.375 168.372 487.977C168.107 487.576 167.974 487.091 167.974 486.523C167.974 486.023 168.073 485.617 168.27 485.307C168.467 484.992 168.73 484.746 169.06 484.568C169.389 484.39 169.753 484.258 170.151 484.17C170.552 484.08 170.955 484.008 171.361 483.955C171.891 483.886 172.321 483.835 172.651 483.801C172.984 483.763 173.226 483.701 173.378 483.614C173.533 483.527 173.611 483.375 173.611 483.159V483.114C173.611 482.553 173.457 482.117 173.151 481.807C172.848 481.496 172.387 481.341 171.77 481.341C171.13 481.341 170.628 481.481 170.264 481.761C169.901 482.042 169.645 482.341 169.497 482.659L168.224 482.205C168.452 481.674 168.755 481.261 169.134 480.966C169.516 480.667 169.933 480.458 170.384 480.341C170.838 480.22 171.285 480.159 171.724 480.159C172.005 480.159 172.327 480.193 172.69 480.261C173.058 480.326 173.412 480.46 173.753 480.665C174.098 480.869 174.384 481.178 174.611 481.591C174.838 482.004 174.952 482.557 174.952 483.25V489H173.611V487.818H173.543C173.452 488.008 173.3 488.21 173.088 488.426C172.876 488.642 172.594 488.826 172.241 488.977C171.889 489.129 171.459 489.205 170.952 489.205ZM171.156 488C171.687 488 172.134 487.896 172.497 487.688C172.865 487.479 173.141 487.21 173.327 486.881C173.516 486.551 173.611 486.205 173.611 485.841V484.614C173.554 484.682 173.429 484.744 173.236 484.801C173.046 484.854 172.827 484.902 172.577 484.943C172.33 484.981 172.09 485.015 171.855 485.045C171.624 485.072 171.437 485.095 171.293 485.114C170.944 485.159 170.618 485.233 170.315 485.335C170.016 485.434 169.774 485.583 169.588 485.784C169.406 485.981 169.315 486.25 169.315 486.591C169.315 487.057 169.488 487.409 169.832 487.648C170.181 487.883 170.622 488 171.156 488ZM181.195 480.273V481.409H176.672V480.273H181.195ZM177.99 478.182H179.331V486.5C179.331 486.879 179.386 487.163 179.496 487.352C179.609 487.538 179.753 487.663 179.928 487.727C180.106 487.788 180.293 487.818 180.49 487.818C180.638 487.818 180.759 487.811 180.854 487.795C180.948 487.777 181.024 487.761 181.081 487.75L181.354 488.955C181.263 488.989 181.136 489.023 180.973 489.057C180.81 489.095 180.604 489.114 180.354 489.114C179.975 489.114 179.604 489.032 179.24 488.869C178.88 488.706 178.581 488.458 178.342 488.125C178.107 487.792 177.99 487.371 177.99 486.864V478.182ZM183.212 489V480.273H184.553V489H183.212ZM183.893 478.818C183.632 478.818 183.407 478.729 183.217 478.551C183.032 478.373 182.939 478.159 182.939 477.909C182.939 477.659 183.032 477.445 183.217 477.267C183.407 477.089 183.632 477 183.893 477C184.155 477 184.378 477.089 184.564 477.267C184.753 477.445 184.848 477.659 184.848 477.909C184.848 478.159 184.753 478.373 184.564 478.551C184.378 478.729 184.155 478.818 183.893 478.818ZM190.554 489.182C189.766 489.182 189.075 488.994 188.48 488.619C187.889 488.244 187.427 487.72 187.094 487.045C186.764 486.371 186.599 485.583 186.599 484.682C186.599 483.773 186.764 482.979 187.094 482.301C187.427 481.623 187.889 481.097 188.48 480.722C189.075 480.347 189.766 480.159 190.554 480.159C191.342 480.159 192.031 480.347 192.622 480.722C193.217 481.097 193.679 481.623 194.009 482.301C194.342 482.979 194.509 483.773 194.509 484.682C194.509 485.583 194.342 486.371 194.009 487.045C193.679 487.72 193.217 488.244 192.622 488.619C192.031 488.994 191.342 489.182 190.554 489.182ZM190.554 487.977C191.152 487.977 191.645 487.824 192.031 487.517C192.418 487.21 192.704 486.807 192.889 486.307C193.075 485.807 193.168 485.265 193.168 484.682C193.168 484.098 193.075 483.555 192.889 483.051C192.704 482.547 192.418 482.14 192.031 481.83C191.645 481.519 191.152 481.364 190.554 481.364C189.955 481.364 189.463 481.519 189.077 481.83C188.69 482.14 188.404 482.547 188.219 483.051C188.033 483.555 187.94 484.098 187.94 484.682C187.94 485.265 188.033 485.807 188.219 486.307C188.404 486.807 188.69 487.21 189.077 487.517C189.463 487.824 189.955 487.977 190.554 487.977ZM197.896 483.75V489H196.555V480.273H197.851V481.636H197.964C198.169 481.193 198.48 480.837 198.896 480.568C199.313 480.295 199.851 480.159 200.51 480.159C201.101 480.159 201.618 480.28 202.061 480.523C202.504 480.761 202.849 481.125 203.095 481.614C203.341 482.098 203.464 482.712 203.464 483.455V489H202.124V483.545C202.124 482.86 201.946 482.326 201.589 481.943C201.233 481.557 200.745 481.364 200.124 481.364C199.696 481.364 199.313 481.456 198.976 481.642C198.643 481.828 198.379 482.098 198.186 482.455C197.993 482.811 197.896 483.242 197.896 483.75ZM212.097 482.227L210.892 482.568C210.816 482.367 210.705 482.172 210.557 481.983C210.413 481.79 210.216 481.631 209.966 481.506C209.716 481.381 209.396 481.318 209.006 481.318C208.472 481.318 208.027 481.441 207.67 481.688C207.318 481.93 207.142 482.239 207.142 482.614C207.142 482.947 207.263 483.21 207.506 483.403C207.748 483.597 208.127 483.758 208.642 483.886L209.938 484.205C210.718 484.394 211.299 484.684 211.682 485.074C212.064 485.46 212.256 485.958 212.256 486.568C212.256 487.068 212.112 487.515 211.824 487.909C211.54 488.303 211.142 488.614 210.631 488.841C210.119 489.068 209.525 489.182 208.847 489.182C207.956 489.182 207.22 488.989 206.636 488.602C206.053 488.216 205.684 487.652 205.528 486.909L206.801 486.591C206.922 487.061 207.152 487.413 207.489 487.648C207.83 487.883 208.275 488 208.824 488C209.449 488 209.945 487.867 210.312 487.602C210.684 487.333 210.869 487.011 210.869 486.636C210.869 486.333 210.763 486.08 210.551 485.875C210.339 485.667 210.013 485.511 209.574 485.409L208.119 485.068C207.32 484.879 206.733 484.585 206.358 484.188C205.987 483.786 205.801 483.284 205.801 482.682C205.801 482.189 205.939 481.754 206.216 481.375C206.496 480.996 206.877 480.699 207.358 480.483C207.843 480.267 208.392 480.159 209.006 480.159C209.869 480.159 210.547 480.348 211.04 480.727C211.536 481.106 211.888 481.606 212.097 482.227Z" fill="#4B5563"/>
<rect y="474" width="18" height="18" rx="3" fill="#3B82F6"/>
<path d="M30.2955 446.364V458H28.8864V447.841H28.8182L25.9773 449.727V448.295L28.8864 446.364H30.2955ZM37.2784 458.159C36.6117 458.159 36.0114 458.027 35.4773 457.761C34.9432 457.496 34.5152 457.133 34.1932 456.67C33.8712 456.208 33.6951 455.682 33.6648 455.091H35.0284C35.0814 455.617 35.3201 456.053 35.7443 456.398C36.1723 456.739 36.6837 456.909 37.2784 456.909C37.7557 456.909 38.1799 456.797 38.5511 456.574C38.9261 456.35 39.2197 456.044 39.4318 455.653C39.6477 455.259 39.7557 454.814 39.7557 454.318C39.7557 453.811 39.6439 453.358 39.4205 452.96C39.2008 452.559 38.8977 452.242 38.5114 452.011C38.125 451.78 37.6837 451.663 37.1875 451.659C36.8314 451.655 36.4659 451.71 36.0909 451.824C35.7159 451.934 35.4072 452.076 35.1648 452.25L33.8466 452.091L34.5511 446.364H40.5966V447.614H35.733L35.3239 451.045H35.392C35.6307 450.856 35.9299 450.699 36.2898 450.574C36.6496 450.449 37.0246 450.386 37.4148 450.386C38.1269 450.386 38.7614 450.557 39.3182 450.898C39.8788 451.235 40.3182 451.697 40.6364 452.284C40.9583 452.871 41.1193 453.542 41.1193 454.295C41.1193 455.038 40.9527 455.701 40.6193 456.284C40.2898 456.864 39.8352 457.322 39.2557 457.659C38.6761 457.992 38.017 458.159 37.2784 458.159Z" fill="black"/>
<path d="M48.081 446.364H49.7628L53.7173 456.023H53.8537L57.8082 446.364H59.4901V458H58.1719V449.159H58.0582L54.4219 458H53.1491L49.5128 449.159H49.3991V458H48.081V446.364ZM65.7926 458.182C64.9517 458.182 64.2263 457.996 63.6165 457.625C63.0104 457.25 62.5426 456.727 62.2131 456.057C61.8873 455.383 61.7244 454.598 61.7244 453.705C61.7244 452.811 61.8873 452.023 62.2131 451.341C62.5426 450.655 63.0009 450.121 63.5881 449.739C64.179 449.352 64.8684 449.159 65.6562 449.159C66.1108 449.159 66.5597 449.235 67.0028 449.386C67.446 449.538 67.8494 449.784 68.2131 450.125C68.5767 450.462 68.8665 450.909 69.0824 451.466C69.2983 452.023 69.4062 452.708 69.4062 453.523V454.091H62.679V452.932H68.0426C68.0426 452.439 67.9441 452 67.7472 451.614C67.554 451.227 67.2775 450.922 66.9176 450.699C66.5616 450.475 66.1411 450.364 65.6562 450.364C65.1222 450.364 64.66 450.496 64.2699 450.761C63.8835 451.023 63.5862 451.364 63.3778 451.784C63.1695 452.205 63.0653 452.655 63.0653 453.136V453.909C63.0653 454.568 63.179 455.127 63.4062 455.585C63.6373 456.04 63.9574 456.386 64.3665 456.625C64.7756 456.86 65.2509 456.977 65.7926 456.977C66.1449 456.977 66.4631 456.928 66.7472 456.83C67.035 456.727 67.2831 456.576 67.4915 456.375C67.6998 456.17 67.8608 455.917 67.9744 455.614L69.2699 455.977C69.1335 456.417 68.9044 456.803 68.5824 457.136C68.2604 457.466 67.8627 457.723 67.3892 457.909C66.9157 458.091 66.3835 458.182 65.7926 458.182ZM75.1051 458.182C74.2642 458.182 73.5388 457.996 72.929 457.625C72.3229 457.25 71.8551 456.727 71.5256 456.057C71.1998 455.383 71.0369 454.598 71.0369 453.705C71.0369 452.811 71.1998 452.023 71.5256 451.341C71.8551 450.655 72.3134 450.121 72.9006 449.739C73.4915 449.352 74.1809 449.159 74.9688 449.159C75.4233 449.159 75.8722 449.235 76.3153 449.386C76.7585 449.538 77.1619 449.784 77.5256 450.125C77.8892 450.462 78.179 450.909 78.3949 451.466C78.6108 452.023 78.7188 452.708 78.7188 453.523V454.091H71.9915V452.932H77.3551C77.3551 452.439 77.2566 452 77.0597 451.614C76.8665 451.227 76.59 450.922 76.2301 450.699C75.8741 450.475 75.4536 450.364 74.9688 450.364C74.4347 450.364 73.9725 450.496 73.5824 450.761C73.196 451.023 72.8987 451.364 72.6903 451.784C72.482 452.205 72.3778 452.655 72.3778 453.136V453.909C72.3778 454.568 72.4915 455.127 72.7188 455.585C72.9498 456.04 73.2699 456.386 73.679 456.625C74.0881 456.86 74.5634 456.977 75.1051 456.977C75.4574 456.977 75.7756 456.928 76.0597 456.83C76.3475 456.727 76.5956 456.576 76.804 456.375C77.0123 456.17 77.1733 455.917 77.2869 455.614L78.5824 455.977C78.446 456.417 78.2169 456.803 77.8949 457.136C77.5729 457.466 77.1752 457.723 76.7017 457.909C76.2282 458.091 75.696 458.182 75.1051 458.182ZM84.554 449.273V450.409H80.0312V449.273H84.554ZM81.3494 447.182H82.6903V455.5C82.6903 455.879 82.7453 456.163 82.8551 456.352C82.9688 456.538 83.1127 456.663 83.2869 456.727C83.465 456.788 83.6525 456.818 83.8494 456.818C83.9972 456.818 84.1184 456.811 84.2131 456.795C84.3078 456.777 84.3835 456.761 84.4403 456.75L84.7131 457.955C84.6222 457.989 84.4953 458.023 84.3324 458.057C84.1695 458.095 83.9631 458.114 83.7131 458.114C83.3343 458.114 82.9631 458.032 82.5994 457.869C82.2396 457.706 81.9403 457.458 81.7017 457.125C81.4669 456.792 81.3494 456.371 81.3494 455.864V447.182ZM92.5966 451.227L91.392 451.568C91.3163 451.367 91.2045 451.172 91.0568 450.983C90.9129 450.79 90.7159 450.631 90.4659 450.506C90.2159 450.381 89.8958 450.318 89.5057 450.318C88.9716 450.318 88.5265 450.441 88.1705 450.688C87.8182 450.93 87.642 451.239 87.642 451.614C87.642 451.947 87.7633 452.21 88.0057 452.403C88.2481 452.597 88.6269 452.758 89.142 452.886L90.4375 453.205C91.2178 453.394 91.7992 453.684 92.1818 454.074C92.5644 454.46 92.7557 454.958 92.7557 455.568C92.7557 456.068 92.6117 456.515 92.3239 456.909C92.0398 457.303 91.642 457.614 91.1307 457.841C90.6193 458.068 90.0246 458.182 89.3466 458.182C88.4564 458.182 87.7197 457.989 87.1364 457.602C86.553 457.216 86.1837 456.652 86.0284 455.909L87.3011 455.591C87.4223 456.061 87.6515 456.413 87.9886 456.648C88.3295 456.883 88.7746 457 89.3239 457C89.9489 457 90.4451 456.867 90.8125 456.602C91.1837 456.333 91.3693 456.011 91.3693 455.636C91.3693 455.333 91.2633 455.08 91.0511 454.875C90.839 454.667 90.5133 454.511 90.0739 454.409L88.6193 454.068C87.8201 453.879 87.233 453.585 86.858 453.188C86.4867 452.786 86.3011 452.284 86.3011 451.682C86.3011 451.189 86.4394 450.754 86.7159 450.375C86.9962 449.996 87.3769 449.699 87.858 449.483C88.3428 449.267 88.892 449.159 89.5057 449.159C90.3693 449.159 91.0473 449.348 91.5398 449.727C92.036 450.106 92.3883 450.606 92.5966 451.227ZM99.456 458V446.364H106.479V447.614H100.865V451.545H106.115V452.795H100.865V456.75H106.57V458H99.456ZM109.837 449.273L111.928 452.841L114.018 449.273H115.564L112.746 453.636L115.564 458H114.018L111.928 454.614L109.837 458H108.291L111.064 453.636L108.291 449.273H109.837ZM117.477 461.273V449.273H118.773V450.659H118.932C119.03 450.508 119.167 450.314 119.341 450.08C119.519 449.841 119.773 449.629 120.102 449.443C120.436 449.254 120.886 449.159 121.455 449.159C122.189 449.159 122.837 449.343 123.398 449.71C123.958 450.078 124.396 450.598 124.71 451.273C125.025 451.947 125.182 452.742 125.182 453.659C125.182 454.583 125.025 455.384 124.71 456.062C124.396 456.737 123.96 457.259 123.403 457.631C122.847 457.998 122.205 458.182 121.477 458.182C120.917 458.182 120.468 458.089 120.131 457.903C119.794 457.714 119.534 457.5 119.352 457.261C119.17 457.019 119.03 456.818 118.932 456.659H118.818V461.273H117.477ZM118.795 453.636C118.795 454.295 118.892 454.877 119.085 455.381C119.278 455.881 119.561 456.273 119.932 456.557C120.303 456.837 120.758 456.977 121.295 456.977C121.856 456.977 122.324 456.83 122.699 456.534C123.078 456.235 123.362 455.833 123.551 455.33C123.744 454.822 123.841 454.258 123.841 453.636C123.841 453.023 123.746 452.47 123.557 451.977C123.371 451.481 123.089 451.089 122.71 450.801C122.335 450.509 121.864 450.364 121.295 450.364C120.75 450.364 120.292 450.502 119.92 450.778C119.549 451.051 119.269 451.434 119.08 451.926C118.89 452.415 118.795 452.985 118.795 453.636ZM130.886 458.182C130.045 458.182 129.32 457.996 128.71 457.625C128.104 457.25 127.636 456.727 127.307 456.057C126.981 455.383 126.818 454.598 126.818 453.705C126.818 452.811 126.981 452.023 127.307 451.341C127.636 450.655 128.095 450.121 128.682 449.739C129.273 449.352 129.962 449.159 130.75 449.159C131.205 449.159 131.653 449.235 132.097 449.386C132.54 449.538 132.943 449.784 133.307 450.125C133.67 450.462 133.96 450.909 134.176 451.466C134.392 452.023 134.5 452.708 134.5 453.523V454.091H127.773V452.932H133.136C133.136 452.439 133.038 452 132.841 451.614C132.648 451.227 132.371 450.922 132.011 450.699C131.655 450.475 131.235 450.364 130.75 450.364C130.216 450.364 129.754 450.496 129.364 450.761C128.977 451.023 128.68 451.364 128.472 451.784C128.263 452.205 128.159 452.655 128.159 453.136V453.909C128.159 454.568 128.273 455.127 128.5 455.585C128.731 456.04 129.051 456.386 129.46 456.625C129.869 456.86 130.345 456.977 130.886 456.977C131.239 456.977 131.557 456.928 131.841 456.83C132.129 456.727 132.377 456.576 132.585 456.375C132.794 456.17 132.955 455.917 133.068 455.614L134.364 455.977C134.227 456.417 133.998 456.803 133.676 457.136C133.354 457.466 132.956 457.723 132.483 457.909C132.009 458.091 131.477 458.182 130.886 458.182ZM140.085 458.182C139.267 458.182 138.563 457.989 137.972 457.602C137.381 457.216 136.926 456.684 136.608 456.006C136.29 455.328 136.131 454.553 136.131 453.682C136.131 452.795 136.294 452.013 136.619 451.335C136.949 450.653 137.407 450.121 137.994 449.739C138.585 449.352 139.275 449.159 140.062 449.159C140.676 449.159 141.229 449.273 141.722 449.5C142.214 449.727 142.617 450.045 142.932 450.455C143.246 450.864 143.441 451.341 143.517 451.886H142.176C142.074 451.489 141.847 451.136 141.494 450.83C141.146 450.519 140.676 450.364 140.085 450.364C139.563 450.364 139.104 450.5 138.71 450.773C138.32 451.042 138.015 451.422 137.795 451.915C137.58 452.403 137.472 452.977 137.472 453.636C137.472 454.311 137.578 454.898 137.79 455.398C138.006 455.898 138.309 456.286 138.699 456.562C139.093 456.839 139.555 456.977 140.085 456.977C140.434 456.977 140.75 456.917 141.034 456.795C141.318 456.674 141.559 456.5 141.756 456.273C141.953 456.045 142.093 455.773 142.176 455.455H143.517C143.441 455.97 143.254 456.434 142.955 456.847C142.659 457.256 142.267 457.581 141.778 457.824C141.294 458.062 140.729 458.182 140.085 458.182ZM149.273 449.273V450.409H144.75V449.273H149.273ZM146.068 447.182H147.409V455.5C147.409 455.879 147.464 456.163 147.574 456.352C147.688 456.538 147.831 456.663 148.006 456.727C148.184 456.788 148.371 456.818 148.568 456.818C148.716 456.818 148.837 456.811 148.932 456.795C149.027 456.777 149.102 456.761 149.159 456.75L149.432 457.955C149.341 457.989 149.214 458.023 149.051 458.057C148.888 458.095 148.682 458.114 148.432 458.114C148.053 458.114 147.682 458.032 147.318 457.869C146.958 457.706 146.659 457.458 146.42 457.125C146.186 456.792 146.068 456.371 146.068 455.864V447.182ZM153.858 458.205C153.305 458.205 152.803 458.1 152.352 457.892C151.902 457.68 151.544 457.375 151.278 456.977C151.013 456.576 150.881 456.091 150.881 455.523C150.881 455.023 150.979 454.617 151.176 454.307C151.373 453.992 151.636 453.746 151.966 453.568C152.295 453.39 152.659 453.258 153.057 453.17C153.458 453.08 153.862 453.008 154.267 452.955C154.797 452.886 155.227 452.835 155.557 452.801C155.89 452.763 156.133 452.701 156.284 452.614C156.439 452.527 156.517 452.375 156.517 452.159V452.114C156.517 451.553 156.364 451.117 156.057 450.807C155.754 450.496 155.294 450.341 154.676 450.341C154.036 450.341 153.534 450.481 153.17 450.761C152.807 451.042 152.551 451.341 152.403 451.659L151.131 451.205C151.358 450.674 151.661 450.261 152.04 449.966C152.422 449.667 152.839 449.458 153.29 449.341C153.744 449.22 154.191 449.159 154.631 449.159C154.911 449.159 155.233 449.193 155.597 449.261C155.964 449.326 156.318 449.46 156.659 449.665C157.004 449.869 157.29 450.178 157.517 450.591C157.744 451.004 157.858 451.557 157.858 452.25V458H156.517V456.818H156.449C156.358 457.008 156.206 457.21 155.994 457.426C155.782 457.642 155.5 457.826 155.148 457.977C154.795 458.129 154.366 458.205 153.858 458.205ZM154.062 457C154.593 457 155.04 456.896 155.403 456.688C155.771 456.479 156.047 456.21 156.233 455.881C156.422 455.551 156.517 455.205 156.517 454.841V453.614C156.46 453.682 156.335 453.744 156.142 453.801C155.953 453.854 155.733 453.902 155.483 453.943C155.237 453.981 154.996 454.015 154.761 454.045C154.53 454.072 154.343 454.095 154.199 454.114C153.85 454.159 153.525 454.233 153.222 454.335C152.922 454.434 152.68 454.583 152.494 454.784C152.313 454.981 152.222 455.25 152.222 455.591C152.222 456.057 152.394 456.409 152.739 456.648C153.087 456.883 153.528 457 154.062 457ZM164.101 449.273V450.409H159.578V449.273H164.101ZM160.896 447.182H162.237V455.5C162.237 455.879 162.292 456.163 162.402 456.352C162.516 456.538 162.66 456.663 162.834 456.727C163.012 456.788 163.199 456.818 163.396 456.818C163.544 456.818 163.665 456.811 163.76 456.795C163.855 456.777 163.93 456.761 163.987 456.75L164.26 457.955C164.169 457.989 164.042 458.023 163.879 458.057C163.716 458.095 163.51 458.114 163.26 458.114C162.881 458.114 162.51 458.032 162.146 457.869C161.786 457.706 161.487 457.458 161.249 457.125C161.014 456.792 160.896 456.371 160.896 455.864V447.182ZM166.118 458V449.273H167.459V458H166.118ZM166.8 447.818C166.538 447.818 166.313 447.729 166.124 447.551C165.938 447.373 165.845 447.159 165.845 446.909C165.845 446.659 165.938 446.445 166.124 446.267C166.313 446.089 166.538 446 166.8 446C167.061 446 167.285 446.089 167.47 446.267C167.66 446.445 167.754 446.659 167.754 446.909C167.754 447.159 167.66 447.373 167.47 447.551C167.285 447.729 167.061 447.818 166.8 447.818ZM173.46 458.182C172.672 458.182 171.981 457.994 171.386 457.619C170.795 457.244 170.333 456.72 170 456.045C169.67 455.371 169.506 454.583 169.506 453.682C169.506 452.773 169.67 451.979 170 451.301C170.333 450.623 170.795 450.097 171.386 449.722C171.981 449.347 172.672 449.159 173.46 449.159C174.248 449.159 174.938 449.347 175.528 449.722C176.123 450.097 176.585 450.623 176.915 451.301C177.248 451.979 177.415 452.773 177.415 453.682C177.415 454.583 177.248 455.371 176.915 456.045C176.585 456.72 176.123 457.244 175.528 457.619C174.938 457.994 174.248 458.182 173.46 458.182ZM173.46 456.977C174.059 456.977 174.551 456.824 174.938 456.517C175.324 456.21 175.61 455.807 175.795 455.307C175.981 454.807 176.074 454.265 176.074 453.682C176.074 453.098 175.981 452.555 175.795 452.051C175.61 451.547 175.324 451.14 174.938 450.83C174.551 450.519 174.059 450.364 173.46 450.364C172.862 450.364 172.369 450.519 171.983 450.83C171.597 451.14 171.311 451.547 171.125 452.051C170.939 452.555 170.847 453.098 170.847 453.682C170.847 454.265 170.939 454.807 171.125 455.307C171.311 455.807 171.597 456.21 171.983 456.517C172.369 456.824 172.862 456.977 173.46 456.977ZM180.803 452.75V458H179.462V449.273H180.757V450.636H180.871C181.075 450.193 181.386 449.837 181.803 449.568C182.219 449.295 182.757 449.159 183.416 449.159C184.007 449.159 184.524 449.28 184.967 449.523C185.411 449.761 185.755 450.125 186.001 450.614C186.248 451.098 186.371 451.712 186.371 452.455V458H185.03V452.545C185.03 451.86 184.852 451.326 184.496 450.943C184.14 450.557 183.651 450.364 183.03 450.364C182.602 450.364 182.219 450.456 181.882 450.642C181.549 450.828 181.286 451.098 181.092 451.455C180.899 451.811 180.803 452.242 180.803 452.75ZM195.003 451.227L193.798 451.568C193.723 451.367 193.611 451.172 193.463 450.983C193.319 450.79 193.122 450.631 192.872 450.506C192.622 450.381 192.302 450.318 191.912 450.318C191.378 450.318 190.933 450.441 190.577 450.688C190.224 450.93 190.048 451.239 190.048 451.614C190.048 451.947 190.17 452.21 190.412 452.403C190.654 452.597 191.033 452.758 191.548 452.886L192.844 453.205C193.624 453.394 194.205 453.684 194.588 454.074C194.971 454.46 195.162 454.958 195.162 455.568C195.162 456.068 195.018 456.515 194.73 456.909C194.446 457.303 194.048 457.614 193.537 457.841C193.026 458.068 192.431 458.182 191.753 458.182C190.863 458.182 190.126 457.989 189.543 457.602C188.959 457.216 188.59 456.652 188.435 455.909L189.707 455.591C189.829 456.061 190.058 456.413 190.395 456.648C190.736 456.883 191.181 457 191.73 457C192.355 457 192.851 456.867 193.219 456.602C193.59 456.333 193.776 456.011 193.776 455.636C193.776 455.333 193.67 455.08 193.457 454.875C193.245 454.667 192.92 454.511 192.48 454.409L191.026 454.068C190.226 453.879 189.639 453.585 189.264 453.188C188.893 452.786 188.707 452.284 188.707 451.682C188.707 451.189 188.846 450.754 189.122 450.375C189.402 449.996 189.783 449.699 190.264 449.483C190.749 449.267 191.298 449.159 191.912 449.159C192.776 449.159 193.454 449.348 193.946 449.727C194.442 450.106 194.795 450.606 195.003 451.227Z" fill="#4B5563"/>
<rect y="443" width="18" height="18" rx="3" fill="#10B981"/>
<path d="M289.136 458.159C288.386 458.159 287.718 458.03 287.131 457.773C286.547 457.515 286.083 457.157 285.739 456.699C285.398 456.237 285.212 455.701 285.182 455.091H286.614C286.644 455.466 286.773 455.79 287 456.062C287.227 456.331 287.525 456.54 287.892 456.688C288.259 456.835 288.667 456.909 289.114 456.909C289.614 456.909 290.057 456.822 290.443 456.648C290.83 456.473 291.133 456.231 291.352 455.92C291.572 455.61 291.682 455.25 291.682 454.841C291.682 454.413 291.576 454.036 291.364 453.71C291.152 453.381 290.841 453.123 290.432 452.938C290.023 452.752 289.523 452.659 288.932 452.659H288V451.409H288.932C289.394 451.409 289.799 451.326 290.148 451.159C290.5 450.992 290.775 450.758 290.972 450.455C291.172 450.152 291.273 449.795 291.273 449.386C291.273 448.992 291.186 448.65 291.011 448.358C290.837 448.066 290.591 447.839 290.273 447.676C289.958 447.513 289.587 447.432 289.159 447.432C288.758 447.432 288.379 447.506 288.023 447.653C287.67 447.797 287.383 448.008 287.159 448.284C286.936 448.557 286.814 448.886 286.795 449.273H285.432C285.455 448.663 285.638 448.129 285.983 447.67C286.328 447.208 286.778 446.848 287.335 446.591C287.896 446.333 288.511 446.205 289.182 446.205C289.902 446.205 290.519 446.35 291.034 446.642C291.549 446.93 291.945 447.311 292.222 447.784C292.498 448.258 292.636 448.769 292.636 449.318C292.636 449.973 292.464 450.532 292.119 450.994C291.778 451.456 291.314 451.777 290.727 451.955V452.045C291.462 452.167 292.036 452.479 292.449 452.983C292.862 453.483 293.068 454.102 293.068 454.841C293.068 455.473 292.896 456.042 292.551 456.545C292.21 457.045 291.744 457.439 291.153 457.727C290.563 458.015 289.89 458.159 289.136 458.159Z" fill="black"/>
<path d="M309.915 452.182C309.915 453.409 309.693 454.47 309.25 455.364C308.807 456.258 308.199 456.947 307.426 457.432C306.653 457.917 305.771 458.159 304.778 458.159C303.786 458.159 302.903 457.917 302.131 457.432C301.358 456.947 300.75 456.258 300.307 455.364C299.864 454.47 299.642 453.409 299.642 452.182C299.642 450.955 299.864 449.894 300.307 449C300.75 448.106 301.358 447.417 302.131 446.932C302.903 446.447 303.786 446.205 304.778 446.205C305.771 446.205 306.653 446.447 307.426 446.932C308.199 447.417 308.807 448.106 309.25 449C309.693 449.894 309.915 450.955 309.915 452.182ZM308.551 452.182C308.551 451.174 308.383 450.324 308.045 449.631C307.712 448.938 307.259 448.413 306.688 448.057C306.119 447.701 305.483 447.523 304.778 447.523C304.074 447.523 303.436 447.701 302.864 448.057C302.295 448.413 301.843 448.938 301.506 449.631C301.172 450.324 301.006 451.174 301.006 452.182C301.006 453.189 301.172 454.04 301.506 454.733C301.843 455.426 302.295 455.951 302.864 456.307C303.436 456.663 304.074 456.841 304.778 456.841C305.483 456.841 306.119 456.663 306.688 456.307C307.259 455.951 307.712 455.426 308.045 454.733C308.383 454.04 308.551 453.189 308.551 452.182ZM317.602 454.432V449.273H318.943V458H317.602V456.523H317.511C317.307 456.966 316.989 457.343 316.557 457.653C316.125 457.96 315.58 458.114 314.92 458.114C314.375 458.114 313.89 457.994 313.466 457.756C313.042 457.513 312.708 457.15 312.466 456.665C312.223 456.176 312.102 455.561 312.102 454.818V449.273H313.443V454.727C313.443 455.364 313.621 455.871 313.977 456.25C314.337 456.629 314.795 456.818 315.352 456.818C315.686 456.818 316.025 456.733 316.369 456.562C316.718 456.392 317.009 456.131 317.244 455.778C317.483 455.426 317.602 454.977 317.602 454.432ZM325.195 449.273V450.409H320.672V449.273H325.195ZM321.99 447.182H323.331V455.5C323.331 455.879 323.386 456.163 323.496 456.352C323.609 456.538 323.753 456.663 323.928 456.727C324.106 456.788 324.293 456.818 324.49 456.818C324.638 456.818 324.759 456.811 324.854 456.795C324.948 456.777 325.024 456.761 325.081 456.75L325.354 457.955C325.263 457.989 325.136 458.023 324.973 458.057C324.81 458.095 324.604 458.114 324.354 458.114C323.975 458.114 323.604 458.032 323.24 457.869C322.88 457.706 322.581 457.458 322.342 457.125C322.107 456.792 321.99 456.371 321.99 455.864V447.182ZM333.237 451.227L332.033 451.568C331.957 451.367 331.845 451.172 331.697 450.983C331.554 450.79 331.357 450.631 331.107 450.506C330.857 450.381 330.536 450.318 330.146 450.318C329.612 450.318 329.167 450.441 328.811 450.688C328.459 450.93 328.283 451.239 328.283 451.614C328.283 451.947 328.404 452.21 328.646 452.403C328.889 452.597 329.268 452.758 329.783 452.886L331.078 453.205C331.858 453.394 332.44 453.684 332.822 454.074C333.205 454.46 333.396 454.958 333.396 455.568C333.396 456.068 333.252 456.515 332.964 456.909C332.68 457.303 332.283 457.614 331.771 457.841C331.26 458.068 330.665 458.182 329.987 458.182C329.097 458.182 328.36 457.989 327.777 457.602C327.194 457.216 326.824 456.652 326.669 455.909L327.942 455.591C328.063 456.061 328.292 456.413 328.629 456.648C328.97 456.883 329.415 457 329.964 457C330.589 457 331.086 456.867 331.453 456.602C331.824 456.333 332.01 456.011 332.01 455.636C332.01 455.333 331.904 455.08 331.692 454.875C331.48 454.667 331.154 454.511 330.714 454.409L329.26 454.068C328.461 453.879 327.874 453.585 327.499 453.188C327.127 452.786 326.942 452.284 326.942 451.682C326.942 451.189 327.08 450.754 327.357 450.375C327.637 449.996 328.018 449.699 328.499 449.483C328.983 449.267 329.533 449.159 330.146 449.159C331.01 449.159 331.688 449.348 332.18 449.727C332.677 450.106 333.029 450.606 333.237 451.227ZM339.21 449.273V450.409H334.688V449.273H339.21ZM336.006 447.182H337.347V455.5C337.347 455.879 337.402 456.163 337.511 456.352C337.625 456.538 337.769 456.663 337.943 456.727C338.121 456.788 338.309 456.818 338.506 456.818C338.653 456.818 338.775 456.811 338.869 456.795C338.964 456.777 339.04 456.761 339.097 456.75L339.369 457.955C339.278 457.989 339.152 458.023 338.989 458.057C338.826 458.095 338.619 458.114 338.369 458.114C337.991 458.114 337.619 458.032 337.256 457.869C336.896 457.706 336.597 457.458 336.358 457.125C336.123 456.792 336.006 456.371 336.006 455.864V447.182ZM343.795 458.205C343.242 458.205 342.741 458.1 342.29 457.892C341.839 457.68 341.481 457.375 341.216 456.977C340.951 456.576 340.818 456.091 340.818 455.523C340.818 455.023 340.917 454.617 341.114 454.307C341.311 453.992 341.574 453.746 341.903 453.568C342.233 453.39 342.597 453.258 342.994 453.17C343.396 453.08 343.799 453.008 344.205 452.955C344.735 452.886 345.165 452.835 345.494 452.801C345.828 452.763 346.07 452.701 346.222 452.614C346.377 452.527 346.455 452.375 346.455 452.159V452.114C346.455 451.553 346.301 451.117 345.994 450.807C345.691 450.496 345.231 450.341 344.614 450.341C343.973 450.341 343.472 450.481 343.108 450.761C342.744 451.042 342.489 451.341 342.341 451.659L341.068 451.205C341.295 450.674 341.598 450.261 341.977 449.966C342.36 449.667 342.777 449.458 343.227 449.341C343.682 449.22 344.129 449.159 344.568 449.159C344.848 449.159 345.17 449.193 345.534 449.261C345.902 449.326 346.256 449.46 346.597 449.665C346.941 449.869 347.227 450.178 347.455 450.591C347.682 451.004 347.795 451.557 347.795 452.25V458H346.455V456.818H346.386C346.295 457.008 346.144 457.21 345.932 457.426C345.72 457.642 345.438 457.826 345.085 457.977C344.733 458.129 344.303 458.205 343.795 458.205ZM344 457C344.53 457 344.977 456.896 345.341 456.688C345.708 456.479 345.985 456.21 346.17 455.881C346.36 455.551 346.455 455.205 346.455 454.841V453.614C346.398 453.682 346.273 453.744 346.08 453.801C345.89 453.854 345.67 453.902 345.42 453.943C345.174 453.981 344.934 454.015 344.699 454.045C344.468 454.072 344.28 454.095 344.136 454.114C343.788 454.159 343.462 454.233 343.159 454.335C342.86 454.434 342.617 454.583 342.432 454.784C342.25 454.981 342.159 455.25 342.159 455.591C342.159 456.057 342.331 456.409 342.676 456.648C343.025 456.883 343.466 457 344 457ZM351.584 452.75V458H350.243V449.273H351.538V450.636H351.652C351.857 450.193 352.167 449.837 352.584 449.568C353 449.295 353.538 449.159 354.197 449.159C354.788 449.159 355.305 449.28 355.749 449.523C356.192 449.761 356.536 450.125 356.783 450.614C357.029 451.098 357.152 451.712 357.152 452.455V458H355.811V452.545C355.811 451.86 355.633 451.326 355.277 450.943C354.921 450.557 354.432 450.364 353.811 450.364C353.383 450.364 353 450.456 352.663 450.642C352.33 450.828 352.067 451.098 351.874 451.455C351.68 451.811 351.584 452.242 351.584 452.75ZM362.898 458.182C362.17 458.182 361.528 457.998 360.972 457.631C360.415 457.259 359.979 456.737 359.665 456.062C359.35 455.384 359.193 454.583 359.193 453.659C359.193 452.742 359.35 451.947 359.665 451.273C359.979 450.598 360.417 450.078 360.977 449.71C361.538 449.343 362.186 449.159 362.92 449.159C363.489 449.159 363.938 449.254 364.267 449.443C364.6 449.629 364.854 449.841 365.028 450.08C365.206 450.314 365.345 450.508 365.443 450.659H365.557V446.364H366.898V458H365.602V456.659H365.443C365.345 456.818 365.205 457.019 365.023 457.261C364.841 457.5 364.581 457.714 364.244 457.903C363.907 458.089 363.458 458.182 362.898 458.182ZM363.08 456.977C363.617 456.977 364.072 456.837 364.443 456.557C364.814 456.273 365.097 455.881 365.29 455.381C365.483 454.877 365.58 454.295 365.58 453.636C365.58 452.985 365.485 452.415 365.295 451.926C365.106 451.434 364.826 451.051 364.455 450.778C364.083 450.502 363.625 450.364 363.08 450.364C362.511 450.364 362.038 450.509 361.659 450.801C361.284 451.089 361.002 451.481 360.812 451.977C360.627 452.47 360.534 453.023 360.534 453.636C360.534 454.258 360.629 454.822 360.818 455.33C361.011 455.833 361.295 456.235 361.67 456.534C362.049 456.83 362.519 456.977 363.08 456.977ZM369.54 458V449.273H370.881V458H369.54ZM370.222 447.818C369.96 447.818 369.735 447.729 369.545 447.551C369.36 447.373 369.267 447.159 369.267 446.909C369.267 446.659 369.36 446.445 369.545 446.267C369.735 446.089 369.96 446 370.222 446C370.483 446 370.706 446.089 370.892 446.267C371.081 446.445 371.176 446.659 371.176 446.909C371.176 447.159 371.081 447.373 370.892 447.551C370.706 447.729 370.483 447.818 370.222 447.818ZM374.678 452.75V458H373.337V449.273H374.632V450.636H374.746C374.95 450.193 375.261 449.837 375.678 449.568C376.094 449.295 376.632 449.159 377.291 449.159C377.882 449.159 378.399 449.28 378.842 449.523C379.286 449.761 379.63 450.125 379.876 450.614C380.123 451.098 380.246 451.712 380.246 452.455V458H378.905V452.545C378.905 451.86 378.727 451.326 378.371 450.943C378.015 450.557 377.526 450.364 376.905 450.364C376.477 450.364 376.094 450.456 375.757 450.642C375.424 450.828 375.161 451.098 374.967 451.455C374.774 451.811 374.678 452.242 374.678 452.75ZM386.219 461.455C385.571 461.455 385.014 461.371 384.548 461.205C384.082 461.042 383.694 460.826 383.384 460.557C383.077 460.292 382.832 460.008 382.651 459.705L383.719 458.955C383.84 459.114 383.993 459.295 384.179 459.5C384.365 459.708 384.618 459.888 384.94 460.04C385.266 460.195 385.692 460.273 386.219 460.273C386.923 460.273 387.505 460.102 387.963 459.761C388.421 459.42 388.651 458.886 388.651 458.159V456.386H388.537C388.438 456.545 388.298 456.742 388.116 456.977C387.938 457.208 387.681 457.415 387.344 457.597C387.01 457.775 386.56 457.864 385.991 457.864C385.287 457.864 384.654 457.697 384.094 457.364C383.537 457.03 383.096 456.545 382.77 455.909C382.448 455.273 382.287 454.5 382.287 453.591C382.287 452.697 382.444 451.919 382.759 451.256C383.073 450.589 383.51 450.074 384.071 449.71C384.632 449.343 385.279 449.159 386.014 449.159C386.582 449.159 387.033 449.254 387.366 449.443C387.704 449.629 387.961 449.841 388.139 450.08C388.321 450.314 388.461 450.508 388.56 450.659H388.696V449.273H389.991V458.25C389.991 459 389.821 459.61 389.48 460.08C389.143 460.553 388.688 460.9 388.116 461.119C387.548 461.343 386.916 461.455 386.219 461.455ZM386.173 456.659C386.711 456.659 387.166 456.536 387.537 456.29C387.908 456.044 388.19 455.689 388.384 455.227C388.577 454.765 388.673 454.212 388.673 453.568C388.673 452.939 388.579 452.384 388.389 451.903C388.2 451.422 387.92 451.045 387.548 450.773C387.177 450.5 386.719 450.364 386.173 450.364C385.605 450.364 385.132 450.508 384.753 450.795C384.378 451.083 384.096 451.47 383.906 451.955C383.721 452.439 383.628 452.977 383.628 453.568C383.628 454.174 383.723 454.71 383.912 455.176C384.105 455.638 384.389 456.002 384.764 456.267C385.143 456.528 385.613 456.659 386.173 456.659ZM397.128 458V446.364H401.06C401.973 446.364 402.719 446.528 403.298 446.858C403.882 447.184 404.313 447.625 404.594 448.182C404.874 448.739 405.014 449.36 405.014 450.045C405.014 450.731 404.874 451.354 404.594 451.915C404.317 452.475 403.889 452.922 403.31 453.256C402.73 453.585 401.988 453.75 401.082 453.75H398.264V452.5H401.037C401.662 452.5 402.164 452.392 402.543 452.176C402.921 451.96 403.196 451.669 403.366 451.301C403.541 450.93 403.628 450.511 403.628 450.045C403.628 449.58 403.541 449.163 403.366 448.795C403.196 448.428 402.92 448.14 402.537 447.932C402.154 447.72 401.647 447.614 401.014 447.614H398.537V458H397.128ZM410.668 458.182C409.827 458.182 409.101 457.996 408.491 457.625C407.885 457.25 407.418 456.727 407.088 456.057C406.762 455.383 406.599 454.598 406.599 453.705C406.599 452.811 406.762 452.023 407.088 451.341C407.418 450.655 407.876 450.121 408.463 449.739C409.054 449.352 409.743 449.159 410.531 449.159C410.986 449.159 411.435 449.235 411.878 449.386C412.321 449.538 412.724 449.784 413.088 450.125C413.452 450.462 413.741 450.909 413.957 451.466C414.173 452.023 414.281 452.708 414.281 453.523V454.091H407.554V452.932H412.918C412.918 452.439 412.819 452 412.622 451.614C412.429 451.227 412.152 450.922 411.793 450.699C411.437 450.475 411.016 450.364 410.531 450.364C409.997 450.364 409.535 450.496 409.145 450.761C408.759 451.023 408.461 451.364 408.253 451.784C408.045 452.205 407.94 452.655 407.94 453.136V453.909C407.94 454.568 408.054 455.127 408.281 455.585C408.512 456.04 408.832 456.386 409.241 456.625C409.651 456.86 410.126 456.977 410.668 456.977C411.02 456.977 411.338 456.928 411.622 456.83C411.91 456.727 412.158 456.576 412.366 456.375C412.575 456.17 412.736 455.917 412.849 455.614L414.145 455.977C414.009 456.417 413.779 456.803 413.457 457.136C413.135 457.466 412.738 457.723 412.264 457.909C411.791 458.091 411.259 458.182 410.668 458.182ZM416.321 458V449.273H417.616V450.591H417.707C417.866 450.159 418.154 449.809 418.571 449.54C418.988 449.271 419.457 449.136 419.98 449.136C420.079 449.136 420.202 449.138 420.349 449.142C420.497 449.146 420.609 449.152 420.685 449.159V450.523C420.639 450.511 420.535 450.494 420.372 450.472C420.213 450.445 420.045 450.432 419.866 450.432C419.442 450.432 419.063 450.521 418.73 450.699C418.401 450.873 418.139 451.116 417.946 451.426C417.757 451.733 417.662 452.083 417.662 452.477V458H416.321ZM426.707 449.273V450.409H422.003V449.273H426.707ZM423.412 458V448.068C423.412 447.568 423.529 447.152 423.764 446.818C423.999 446.485 424.304 446.235 424.679 446.068C425.054 445.902 425.45 445.818 425.866 445.818C426.196 445.818 426.465 445.845 426.673 445.898C426.882 445.951 427.037 446 427.139 446.045L426.753 447.205C426.685 447.182 426.59 447.153 426.469 447.119C426.351 447.085 426.196 447.068 426.003 447.068C425.56 447.068 425.24 447.18 425.043 447.403C424.849 447.627 424.753 447.955 424.753 448.386V458H423.412ZM431.773 458.182C430.985 458.182 430.294 457.994 429.699 457.619C429.108 457.244 428.646 456.72 428.312 456.045C427.983 455.371 427.818 454.583 427.818 453.682C427.818 452.773 427.983 451.979 428.312 451.301C428.646 450.623 429.108 450.097 429.699 449.722C430.294 449.347 430.985 449.159 431.773 449.159C432.561 449.159 433.25 449.347 433.841 449.722C434.436 450.097 434.898 450.623 435.227 451.301C435.561 451.979 435.727 452.773 435.727 453.682C435.727 454.583 435.561 455.371 435.227 456.045C434.898 456.72 434.436 457.244 433.841 457.619C433.25 457.994 432.561 458.182 431.773 458.182ZM431.773 456.977C432.371 456.977 432.864 456.824 433.25 456.517C433.636 456.21 433.922 455.807 434.108 455.307C434.294 454.807 434.386 454.265 434.386 453.682C434.386 453.098 434.294 452.555 434.108 452.051C433.922 451.547 433.636 451.14 433.25 450.83C432.864 450.519 432.371 450.364 431.773 450.364C431.174 450.364 430.682 450.519 430.295 450.83C429.909 451.14 429.623 451.547 429.438 452.051C429.252 452.555 429.159 453.098 429.159 453.682C429.159 454.265 429.252 454.807 429.438 455.307C429.623 455.807 429.909 456.21 430.295 456.517C430.682 456.824 431.174 456.977 431.773 456.977ZM437.774 458V449.273H439.07V450.591H439.161C439.32 450.159 439.607 449.809 440.024 449.54C440.441 449.271 440.911 449.136 441.433 449.136C441.532 449.136 441.655 449.138 441.803 449.142C441.95 449.146 442.062 449.152 442.138 449.159V450.523C442.092 450.511 441.988 450.494 441.825 450.472C441.666 450.445 441.498 450.432 441.32 450.432C440.895 450.432 440.517 450.521 440.183 450.699C439.854 450.873 439.592 451.116 439.399 451.426C439.21 451.733 439.115 452.083 439.115 452.477V458H437.774ZM443.727 458V449.273H445.023V450.636H445.136C445.318 450.17 445.612 449.809 446.017 449.551C446.422 449.29 446.909 449.159 447.477 449.159C448.053 449.159 448.532 449.29 448.915 449.551C449.301 449.809 449.602 450.17 449.818 450.636H449.909C450.133 450.186 450.468 449.828 450.915 449.562C451.362 449.294 451.898 449.159 452.523 449.159C453.303 449.159 453.941 449.403 454.438 449.892C454.934 450.377 455.182 451.133 455.182 452.159V458H453.841V452.159C453.841 451.515 453.665 451.055 453.312 450.778C452.96 450.502 452.545 450.364 452.068 450.364C451.455 450.364 450.979 450.549 450.642 450.92C450.305 451.288 450.136 451.754 450.136 452.318V458H448.773V452.023C448.773 451.527 448.612 451.127 448.29 450.824C447.968 450.517 447.553 450.364 447.045 450.364C446.697 450.364 446.371 450.456 446.068 450.642C445.769 450.828 445.527 451.085 445.341 451.415C445.159 451.741 445.068 452.117 445.068 452.545V458H443.727ZM460.202 458.205C459.649 458.205 459.147 458.1 458.696 457.892C458.245 457.68 457.887 457.375 457.622 456.977C457.357 456.576 457.224 456.091 457.224 455.523C457.224 455.023 457.323 454.617 457.52 454.307C457.717 453.992 457.98 453.746 458.31 453.568C458.639 453.39 459.003 453.258 459.401 453.17C459.802 453.08 460.205 453.008 460.611 452.955C461.141 452.886 461.571 452.835 461.901 452.801C462.234 452.763 462.476 452.701 462.628 452.614C462.783 452.527 462.861 452.375 462.861 452.159V452.114C462.861 451.553 462.707 451.117 462.401 450.807C462.098 450.496 461.637 450.341 461.02 450.341C460.38 450.341 459.878 450.481 459.514 450.761C459.151 451.042 458.895 451.341 458.747 451.659L457.474 451.205C457.702 450.674 458.005 450.261 458.384 449.966C458.766 449.667 459.183 449.458 459.634 449.341C460.088 449.22 460.535 449.159 460.974 449.159C461.255 449.159 461.577 449.193 461.94 449.261C462.308 449.326 462.662 449.46 463.003 449.665C463.348 449.869 463.634 450.178 463.861 450.591C464.088 451.004 464.202 451.557 464.202 452.25V458H462.861V456.818H462.793C462.702 457.008 462.55 457.21 462.338 457.426C462.126 457.642 461.844 457.826 461.491 457.977C461.139 458.129 460.709 458.205 460.202 458.205ZM460.406 457C460.937 457 461.384 456.896 461.747 456.688C462.115 456.479 462.391 456.21 462.577 455.881C462.766 455.551 462.861 455.205 462.861 454.841V453.614C462.804 453.682 462.679 453.744 462.486 453.801C462.296 453.854 462.077 453.902 461.827 453.943C461.58 453.981 461.34 454.015 461.105 454.045C460.874 454.072 460.687 454.095 460.543 454.114C460.194 454.159 459.868 454.233 459.565 454.335C459.266 454.434 459.024 454.583 458.838 454.784C458.656 454.981 458.565 455.25 458.565 455.591C458.565 456.057 458.738 456.409 459.082 456.648C459.431 456.883 459.872 457 460.406 457ZM467.99 452.75V458H466.649V449.273H467.945V450.636H468.058C468.263 450.193 468.573 449.837 468.99 449.568C469.407 449.295 469.945 449.159 470.604 449.159C471.195 449.159 471.712 449.28 472.155 449.523C472.598 449.761 472.943 450.125 473.189 450.614C473.435 451.098 473.558 451.712 473.558 452.455V458H472.217V452.545C472.217 451.86 472.039 451.326 471.683 450.943C471.327 450.557 470.839 450.364 470.217 450.364C469.789 450.364 469.407 450.456 469.07 450.642C468.736 450.828 468.473 451.098 468.28 451.455C468.087 451.811 467.99 452.242 467.99 452.75ZM479.554 458.182C478.736 458.182 478.031 457.989 477.44 457.602C476.849 457.216 476.395 456.684 476.077 456.006C475.759 455.328 475.599 454.553 475.599 453.682C475.599 452.795 475.762 452.013 476.088 451.335C476.418 450.653 476.876 450.121 477.463 449.739C478.054 449.352 478.743 449.159 479.531 449.159C480.145 449.159 480.698 449.273 481.19 449.5C481.683 449.727 482.086 450.045 482.401 450.455C482.715 450.864 482.91 451.341 482.986 451.886H481.645C481.543 451.489 481.315 451.136 480.963 450.83C480.615 450.519 480.145 450.364 479.554 450.364C479.031 450.364 478.573 450.5 478.179 450.773C477.789 451.042 477.484 451.422 477.264 451.915C477.048 452.403 476.94 452.977 476.94 453.636C476.94 454.311 477.046 454.898 477.259 455.398C477.474 455.898 477.777 456.286 478.168 456.562C478.562 456.839 479.024 456.977 479.554 456.977C479.902 456.977 480.219 456.917 480.503 456.795C480.787 456.674 481.027 456.5 481.224 456.273C481.421 456.045 481.562 455.773 481.645 455.455H482.986C482.91 455.97 482.723 456.434 482.423 456.847C482.128 457.256 481.736 457.581 481.247 457.824C480.762 458.062 480.198 458.182 479.554 458.182ZM488.605 458.182C487.764 458.182 487.039 457.996 486.429 457.625C485.823 457.25 485.355 456.727 485.026 456.057C484.7 455.383 484.537 454.598 484.537 453.705C484.537 452.811 484.7 452.023 485.026 451.341C485.355 450.655 485.813 450.121 486.401 449.739C486.991 449.352 487.681 449.159 488.469 449.159C488.923 449.159 489.372 449.235 489.815 449.386C490.259 449.538 490.662 449.784 491.026 450.125C491.389 450.462 491.679 450.909 491.895 451.466C492.111 452.023 492.219 452.708 492.219 453.523V454.091H485.491V452.932H490.855C490.855 452.439 490.757 452 490.56 451.614C490.366 451.227 490.09 450.922 489.73 450.699C489.374 450.475 488.954 450.364 488.469 450.364C487.935 450.364 487.473 450.496 487.082 450.761C486.696 451.023 486.399 451.364 486.19 451.784C485.982 452.205 485.878 452.655 485.878 453.136V453.909C485.878 454.568 485.991 455.127 486.219 455.585C486.45 456.04 486.77 456.386 487.179 456.625C487.588 456.86 488.063 456.977 488.605 456.977C488.957 456.977 489.276 456.928 489.56 456.83C489.848 456.727 490.096 456.576 490.304 456.375C490.512 456.17 490.673 455.917 490.787 455.614L492.082 455.977C491.946 456.417 491.717 456.803 491.395 457.136C491.073 457.466 490.675 457.723 490.202 457.909C489.728 458.091 489.196 458.182 488.605 458.182Z" fill="#4B5563"/>
<rect x="259" y="443" width="18" height="18" rx="3" fill="#059669"/>
</svg>
