<svg width="106" height="26" viewBox="0 0 106 26" fill="none" xmlns="http://www.w3.org/2000/svg">
<path d="M34.4382 19V5.90909H39.1044C40.1229 5.90909 40.9666 6.09446 41.6357 6.4652C42.3047 6.83594 42.8054 7.34304 43.1378 7.98651C43.4702 8.62571 43.6364 9.34588 43.6364 10.147C43.6364 10.9524 43.468 11.6768 43.1314 12.3203C42.799 12.9595 42.2962 13.4666 41.6229 13.8416C40.9538 14.2124 40.1122 14.3977 39.098 14.3977H35.8892V12.723H38.919C39.5625 12.723 40.0845 12.6122 40.4851 12.3906C40.8857 12.1648 41.1797 11.858 41.3672 11.4702C41.5547 11.0824 41.6484 10.6413 41.6484 10.147C41.6484 9.6527 41.5547 9.21378 41.3672 8.83026C41.1797 8.44673 40.8835 8.14631 40.4787 7.92898C40.0781 7.71165 39.5497 7.60298 38.8935 7.60298H36.4134V19H34.4382ZM47.7097 5.90909V19H45.7985V5.90909H47.7097ZM53.1381 19.2173C52.516 19.2173 51.9535 19.1023 51.4506 18.8722C50.9478 18.6378 50.5494 18.299 50.2553 17.8558C49.9656 17.4126 49.8207 16.8693 49.8207 16.2259C49.8207 15.6719 49.9272 15.2159 50.1403 14.858C50.3533 14.5 50.641 14.2166 51.0032 14.0078C51.3654 13.799 51.7702 13.6413 52.2177 13.5348C52.6651 13.4283 53.1211 13.3473 53.5856 13.2919C54.1737 13.2237 54.6509 13.1683 55.0174 13.1257C55.3839 13.0788 55.6502 13.0043 55.8164 12.902C55.9826 12.7997 56.0657 12.6335 56.0657 12.4034V12.3587C56.0657 11.8004 55.908 11.3679 55.5927 11.0611C55.2816 10.7543 54.8171 10.6009 54.1992 10.6009C53.5558 10.6009 53.0487 10.7436 52.6779 11.0291C52.3114 11.3104 52.0579 11.6236 51.9173 11.9688L50.1211 11.5597C50.3342 10.9631 50.6452 10.4815 51.0543 10.1151C51.4677 9.74432 51.9428 9.47585 52.4798 9.30966C53.0167 9.1392 53.5813 9.05398 54.1737 9.05398C54.5657 9.05398 54.9812 9.10085 55.4201 9.1946C55.8633 9.28409 56.2766 9.45028 56.6602 9.69318C57.0479 9.93608 57.3654 10.2834 57.6126 10.7351C57.8597 11.1825 57.9833 11.7642 57.9833 12.4801V19H56.1168V17.6577H56.0401C55.9165 17.9048 55.7312 18.1477 55.484 18.3864C55.2369 18.625 54.9194 18.8232 54.5316 18.9808C54.1438 19.1385 53.6793 19.2173 53.1381 19.2173ZM53.5536 17.6832C54.082 17.6832 54.5337 17.5788 54.9087 17.37C55.288 17.1612 55.5756 16.8885 55.7717 16.5518C55.9719 16.2109 56.0721 15.8466 56.0721 15.4588V14.1932C56.0039 14.2614 55.8718 14.3253 55.6758 14.3849C55.484 14.4403 55.2646 14.4893 55.0174 14.532C54.7702 14.5703 54.5295 14.6065 54.2951 14.6406C54.0607 14.6705 53.8647 14.696 53.707 14.7173C53.3363 14.7642 52.9975 14.843 52.6907 14.9538C52.3881 15.0646 52.1452 15.2244 51.962 15.4332C51.783 15.6378 51.6935 15.9105 51.6935 16.2514C51.6935 16.7244 51.8683 17.0824 52.2177 17.3253C52.5671 17.5639 53.0124 17.6832 53.5536 17.6832ZM65.112 9.18182V10.7159H59.7491V9.18182H65.112ZM61.1873 6.82955H63.0985V16.1172C63.0985 16.4879 63.1539 16.767 63.2647 16.9545C63.3755 17.1378 63.5183 17.2635 63.693 17.3317C63.872 17.3956 64.0659 17.4276 64.2747 17.4276C64.4281 17.4276 64.5623 17.4169 64.6774 17.3956C64.7924 17.3743 64.8819 17.3572 64.9458 17.3445L65.291 18.9233C65.1802 18.9659 65.0225 19.0085 64.818 19.0511C64.6135 19.098 64.3578 19.1236 64.051 19.1278C63.5481 19.1364 63.0794 19.0469 62.6447 18.8594C62.21 18.6719 61.8585 18.3821 61.59 17.9901C61.3216 17.598 61.1873 17.1058 61.1873 16.5135V6.82955ZM71.8988 9.18182V10.7159H66.3505V9.18182H71.8988ZM67.8718 19V8.04403C67.8718 7.4304 68.006 6.92116 68.2745 6.51634C68.543 6.10724 68.8988 5.80256 69.342 5.60227C69.7852 5.39773 70.2667 5.29545 70.7866 5.29545C71.1701 5.29545 71.4982 5.32741 71.771 5.39134C72.0437 5.45099 72.2461 5.50639 72.3782 5.55753L71.9308 7.1044C71.8413 7.07883 71.7262 7.04901 71.5856 7.01491C71.445 6.97656 71.2745 6.95739 71.0742 6.95739C70.6097 6.95739 70.2773 7.07244 70.0771 7.30256C69.881 7.53267 69.783 7.86506 69.783 8.29972V19H67.8718ZM77.6197 19.1982C76.6992 19.1982 75.896 18.9872 75.2099 18.5653C74.5238 18.1435 73.9911 17.5533 73.6119 16.7947C73.2326 16.0362 73.043 15.1499 73.043 14.1357C73.043 13.1172 73.2326 12.2266 73.6119 11.4638C73.9911 10.701 74.5238 10.1087 75.2099 9.68679C75.896 9.26491 76.6992 9.05398 77.6197 9.05398C78.5401 9.05398 79.3434 9.26491 80.0295 9.68679C80.7156 10.1087 81.2482 10.701 81.6275 11.4638C82.0067 12.2266 82.1964 13.1172 82.1964 14.1357C82.1964 15.1499 82.0067 16.0362 81.6275 16.7947C81.2482 17.5533 80.7156 18.1435 80.0295 18.5653C79.3434 18.9872 78.5401 19.1982 77.6197 19.1982ZM77.6261 17.5938C78.2227 17.5938 78.717 17.4361 79.109 17.1207C79.5011 16.8054 79.7908 16.3857 79.9783 15.8615C80.1701 15.3374 80.266 14.7599 80.266 14.1293C80.266 13.5028 80.1701 12.9276 79.9783 12.4034C79.7908 11.875 79.5011 11.451 79.109 11.1314C78.717 10.8118 78.2227 10.652 77.6261 10.652C77.0252 10.652 76.5266 10.8118 76.1303 11.1314C75.7383 11.451 75.4464 11.875 75.2546 12.4034C75.0671 12.9276 74.9734 13.5028 74.9734 14.1293C74.9734 14.7599 75.0671 15.3374 75.2546 15.8615C75.4464 16.3857 75.7383 16.8054 76.1303 17.1207C76.5266 17.4361 77.0252 17.5938 77.6261 17.5938ZM84.3297 19V9.18182H86.177V10.7415H86.2793C86.4583 10.2131 86.7736 9.79758 87.2253 9.49503C87.6813 9.18821 88.1969 9.0348 88.7722 9.0348C88.8915 9.0348 89.0321 9.03906 89.1941 9.04759C89.3603 9.05611 89.4902 9.06676 89.584 9.07955V10.9077C89.5073 10.8864 89.3709 10.8629 89.1749 10.8374C88.9789 10.8075 88.7828 10.7926 88.5868 10.7926C88.1351 10.7926 87.7324 10.8885 87.3787 11.0803C87.0293 11.2678 86.7523 11.5298 86.5478 11.8665C86.3432 12.1989 86.2409 12.5781 86.2409 13.0043V19H84.3297ZM91.2379 19V9.18182H93.0724V10.7798H93.1939C93.3984 10.2386 93.733 9.81676 94.1974 9.5142C94.6619 9.20739 95.218 9.05398 95.8658 9.05398C96.522 9.05398 97.0717 9.20739 97.5149 9.5142C97.9624 9.82102 98.2926 10.2429 98.5057 10.7798H98.608C98.8423 10.2557 99.2152 9.83807 99.7266 9.52699C100.238 9.21165 100.847 9.05398 101.555 9.05398C102.445 9.05398 103.172 9.3331 103.734 9.89134C104.301 10.4496 104.585 11.2912 104.585 12.4162V19H102.673V12.5952C102.673 11.9304 102.492 11.4489 102.13 11.1506C101.768 10.8523 101.335 10.7031 100.832 10.7031C100.21 10.7031 99.7266 10.8949 99.3814 11.2784C99.0362 11.6577 98.8636 12.1456 98.8636 12.7422V19H96.9588V12.4737C96.9588 11.9411 96.7926 11.5128 96.4602 11.1889C96.1278 10.8651 95.6953 10.7031 95.1626 10.7031C94.8004 10.7031 94.4659 10.799 94.1591 10.9908C93.8565 11.1783 93.6115 11.4403 93.424 11.777C93.2408 12.1136 93.1491 12.5036 93.1491 12.9467V19H91.2379Z" fill="black"/>
<path d="M25.3534 17.0489C24.5526 19.4921 23.0453 21.6431 21.022 23.2297C18.9988 24.8163 16.5505 25.7673 13.9868 25.9625C11.423 26.1577 8.85899 25.5882 6.61889 24.3261C4.37879 23.0641 2.56324 21.1661 1.40184 18.8722C0.240426 16.5783 -0.21468 13.9915 0.0940665 11.4389C0.402813 8.8864 1.46155 6.48272 3.13638 4.53188C4.81122 2.58104 7.02693 1.17066 9.50334 0.479084C11.9797 -0.212491 14.6056 -0.154196 17.0489 0.646597L15.515 5.32645C13.9974 4.82902 12.3662 4.79281 10.828 5.2224C9.28972 5.65198 7.91338 6.52807 6.87303 7.73987C5.83267 8.95167 5.17502 10.4448 4.98324 12.0303C4.79145 13.6159 5.07415 15.2227 5.79558 16.6476C6.51701 18.0725 7.64477 19.2515 9.03625 20.0354C10.4277 20.8194 12.0204 21.1731 13.6129 21.0519C15.2055 20.9307 16.7263 20.3399 17.983 19.3544C19.2398 18.3688 20.1761 17.0327 20.6735 15.515L25.3534 17.0489Z" fill="#3B82F6"/>
</svg>
